<svg id="svg" version="1.1" xmlns="http://www.w3.org/2000/svg" xmlns:xlink="http://www.w3.org/1999/xlink" width="400" height="203.003003003003" viewBox="0, 0, 400,203.003003003003"><g id="svgg"><path id="path0" d="M169.497 89.542 C 169.493 127.015,169.501 126.627,168.687 128.078 C 167.345 130.472,165.986 130.871,158.875 130.957 L 153.333 131.024 153.333 139.694 L 153.333 148.364 159.625 148.287 C 165.309 148.218,166.061 148.176,167.417 147.854 C 176.760 145.636,182.680 139.680,184.794 130.374 L 185.239 128.417 185.291 91.292 L 185.343 54.167 177.422 54.167 L 169.500 54.167 169.497 89.542 M193.167 54.219 C 193.167 54.392,193.722 58.346,194.085 60.750 C 194.320 62.308,194.615 64.333,194.742 65.250 C 194.961 66.842,195.408 69.913,197.090 81.417 C 197.505 84.258,197.954 87.371,198.087 88.333 C 198.219 89.296,198.557 91.621,198.837 93.500 C 199.117 95.379,199.412 97.404,199.492 98.000 C 199.572 98.596,199.944 101.183,200.318 103.750 C 202.851 121.119,203.967 128.803,204.165 130.250 C 204.241 130.800,204.541 132.862,204.833 134.833 C 205.125 136.804,205.425 138.867,205.500 139.417 C 205.832 141.862,206.692 147.618,206.777 147.958 L 206.869 148.333 217.435 148.333 C 224.600 148.333,228.000 148.278,228.000 148.161 C 228.000 148.066,228.145 146.997,228.323 145.786 C 228.501 144.575,228.806 142.421,229.000 141.000 C 229.195 139.579,229.495 137.404,229.667 136.167 C 229.838 134.929,230.138 132.754,230.333 131.333 C 230.528 129.912,230.831 127.737,231.006 126.500 C 231.181 125.263,231.516 122.825,231.752 121.083 C 231.988 119.342,232.289 117.167,232.421 116.250 C 232.553 115.333,232.965 112.371,233.336 109.667 C 233.707 106.962,234.162 103.662,234.347 102.333 C 234.685 99.918,235.068 97.144,235.672 92.750 C 236.927 83.624,237.341 80.771,237.419 80.692 C 237.497 80.614,237.538 80.884,238.340 86.667 C 238.715 89.371,239.316 93.683,239.676 96.250 C 240.036 98.817,240.487 102.042,240.677 103.417 C 240.867 104.792,241.162 106.892,241.333 108.083 C 241.504 109.275,241.800 111.375,241.990 112.750 C 242.180 114.125,242.630 117.350,242.990 119.917 C 243.585 124.155,244.306 129.309,245.426 137.333 C 246.503 145.051,246.846 147.453,246.933 147.875 L 247.026 148.333 257.578 148.333 L 268.130 148.333 268.227 147.792 C 268.348 147.123,269.939 136.064,270.259 133.667 C 270.388 132.704,270.533 131.729,270.581 131.500 C 270.630 131.271,270.779 130.258,270.914 129.250 C 271.048 128.242,271.649 124.042,272.249 119.917 C 272.848 115.792,273.450 111.592,273.585 110.583 C 273.720 109.575,273.869 108.563,273.917 108.333 C 273.964 108.104,274.112 107.092,274.247 106.083 C 274.381 105.075,274.982 100.875,275.583 96.750 C 276.184 92.625,276.785 88.425,276.920 87.417 C 277.054 86.408,277.203 85.396,277.250 85.167 C 277.297 84.938,277.446 83.925,277.580 82.917 C 277.715 81.908,278.316 77.708,278.917 73.583 C 279.518 69.458,280.117 65.296,280.250 64.333 C 280.641 61.483,280.994 59.050,281.341 56.823 C 281.520 55.672,281.667 54.602,281.667 54.447 C 281.667 54.184,281.103 54.167,273.719 54.207 L 265.771 54.250 265.491 56.083 C 264.684 61.377,262.528 78.923,261.752 86.500 C 261.710 86.912,261.564 88.225,261.429 89.417 C 261.293 90.608,261.030 93.046,260.844 94.833 C 260.659 96.621,260.358 99.508,260.177 101.250 C 259.243 110.217,257.364 129.467,257.323 130.489 C 257.297 131.132,257.026 129.960,256.862 128.496 C 256.765 127.628,256.453 125.117,256.169 122.917 C 255.885 120.717,255.547 118.054,255.418 117.000 C 255.289 115.946,254.989 113.583,254.752 111.750 C 254.515 109.917,254.217 107.554,254.089 106.500 C 253.961 105.446,253.661 103.083,253.421 101.250 C 253.181 99.417,252.881 97.054,252.753 96.000 C 252.625 94.946,252.175 91.383,251.752 88.083 C 251.330 84.783,250.878 81.221,250.749 80.167 C 250.619 79.112,250.319 76.750,250.082 74.917 C 249.846 73.083,249.546 70.721,249.416 69.667 C 249.286 68.612,248.986 66.250,248.749 64.417 C 248.512 62.583,248.214 60.221,248.087 59.167 C 247.959 58.112,247.761 56.556,247.647 55.708 L 247.440 54.167 237.387 54.167 C 228.321 54.167,227.333 54.193,227.333 54.431 C 227.333 54.576,227.142 56.170,226.908 57.973 C 226.674 59.775,226.378 62.112,226.251 63.167 C 226.124 64.221,225.824 66.583,225.584 68.417 C 225.345 70.250,225.045 72.612,224.918 73.667 C 224.791 74.721,224.491 77.083,224.251 78.917 C 224.012 80.750,223.711 83.112,223.583 84.167 C 223.455 85.221,223.157 87.583,222.920 89.417 C 222.683 91.250,222.379 93.688,222.243 94.833 C 222.108 95.979,221.961 97.104,221.917 97.333 C 221.872 97.563,221.727 98.688,221.594 99.833 C 221.460 100.979,221.155 103.417,220.916 105.250 C 220.676 107.083,220.376 109.446,220.249 110.500 C 220.122 111.554,219.822 113.917,219.582 115.750 C 219.343 117.583,219.042 119.946,218.914 121.000 C 217.746 130.622,217.607 131.409,217.431 129.417 C 217.367 128.683,217.202 126.958,217.065 125.583 C 216.928 124.208,216.746 122.258,216.660 121.250 C 216.574 120.242,216.392 118.329,216.256 117.000 C 216.119 115.671,215.857 113.064,215.672 111.208 C 215.103 105.472,214.670 101.214,214.329 98.000 C 214.150 96.304,213.813 93.117,213.581 90.917 C 213.349 88.717,213.051 85.979,212.918 84.833 C 212.785 83.688,212.483 81.063,212.248 79.000 C 211.378 71.383,211.139 69.455,210.077 61.500 C 209.753 59.071,209.403 56.427,209.300 55.625 L 209.113 54.167 201.140 54.167 C 196.755 54.167,193.167 54.190,193.167 54.219 " stroke="none" fill="#fc6404" fill-rule="evenodd"/><path id="path1" d="M211.783 0.344 C 209.996 0.959,202.249 4.477,194.917 8.003 C 193.542 8.664,191.517 9.638,190.417 10.167 C 186.447 12.075,177.378 16.505,168.750 20.750 C 163.350 23.406,158.686 25.697,149.917 29.997 C 140.903 34.416,135.937 36.770,134.406 37.349 C 132.606 38.029,132.765 37.610,130.594 47.366 C 129.628 51.702,128.649 56.075,128.417 57.083 C 128.185 58.092,127.736 60.079,127.418 61.500 C 127.101 62.921,126.611 65.096,126.329 66.333 C 125.606 69.508,124.794 73.101,123.730 77.833 C 123.225 80.079,122.629 82.723,122.406 83.708 C 122.183 84.694,121.819 86.306,121.597 87.292 C 120.737 91.115,119.103 98.257,118.250 101.917 C 117.758 104.025,117.085 106.950,116.753 108.417 C 116.421 109.883,115.586 113.333,114.897 116.083 C 112.527 125.546,112.375 125.104,121.910 136.417 C 132.129 148.542,138.000 155.939,138.000 156.690 C 138.000 156.802,121.685 156.845,88.708 156.819 L 39.417 156.781 39.369 158.474 L 39.322 160.167 91.952 160.125 L 144.583 160.083 145.083 159.127 C 145.446 158.433,145.538 158.104,145.417 157.929 C 145.325 157.797,143.155 155.040,140.594 151.803 C 138.033 148.565,134.021 143.488,131.677 140.519 C 129.334 137.550,125.668 132.911,123.531 130.209 C 117.728 122.871,117.919 123.282,118.799 120.077 C 119.739 116.655,122.483 105.198,125.644 91.500 C 126.869 86.192,135.468 47.293,135.923 45.000 C 136.742 40.877,135.100 41.982,153.250 33.335 C 155.685 32.174,162.591 28.878,169.833 25.418 C 171.896 24.433,174.408 23.234,175.417 22.752 C 176.425 22.271,178.919 21.080,180.958 20.105 C 182.998 19.131,186.335 17.536,188.375 16.561 C 190.415 15.587,192.908 14.396,193.917 13.916 C 197.316 12.297,207.062 7.637,209.832 6.306 L 212.581 4.986 213.332 5.263 C 216.618 6.478,227.783 11.783,249.250 22.332 C 255.001 25.158,257.539 26.385,261.833 28.418 C 263.438 29.178,266.175 30.490,267.917 31.334 C 272.381 33.499,279.157 36.752,280.833 37.534 C 289.264 41.469,288.868 40.881,291.349 53.145 C 291.986 56.295,292.884 60.532,293.344 62.561 C 293.804 64.590,295.418 71.800,296.930 78.583 C 298.442 85.367,299.896 91.854,300.161 93.000 C 300.426 94.146,300.991 96.621,301.416 98.500 C 302.235 102.114,305.046 114.041,306.169 118.667 C 307.344 123.503,307.342 123.515,305.048 126.184 C 304.229 127.137,302.320 129.492,300.805 131.417 C 298.225 134.698,292.046 142.457,284.750 151.578 C 283.008 153.755,281.148 156.126,280.616 156.847 L 279.649 158.158 280.199 159.160 L 280.750 160.163 333.375 160.165 L 386.000 160.167 386.000 158.500 L 386.000 156.833 381.792 156.825 C 379.477 156.820,357.277 156.824,332.458 156.833 C 307.640 156.842,287.333 156.807,287.333 156.755 C 287.333 156.247,289.702 153.021,292.648 149.515 C 293.604 148.377,296.332 145.011,298.711 142.034 C 301.089 139.058,304.568 134.793,306.441 132.556 C 312.880 124.868,312.771 125.302,310.532 116.167 C 309.802 113.188,309.087 110.225,308.944 109.583 C 308.800 108.942,308.494 107.592,308.264 106.583 C 308.034 105.575,307.537 103.400,307.160 101.750 C 306.784 100.100,306.183 97.475,305.826 95.917 C 305.468 94.358,304.385 89.596,303.418 85.333 C 302.452 81.071,301.403 76.458,301.087 75.083 C 300.771 73.708,300.209 71.252,299.837 69.626 C 299.466 67.999,298.865 65.374,298.502 63.792 C 298.139 62.211,297.052 57.429,296.087 53.167 C 295.123 48.904,294.225 44.967,294.092 44.417 C 293.960 43.867,293.659 42.525,293.424 41.436 C 292.762 38.372,292.419 37.961,289.333 36.532 C 287.748 35.798,285.617 34.783,281.917 32.998 C 280.542 32.335,278.817 31.511,278.083 31.167 C 277.350 30.822,275.700 30.036,274.417 29.419 C 273.133 28.801,271.408 27.975,270.583 27.583 C 269.758 27.190,268.108 26.403,266.917 25.834 C 265.725 25.264,264.150 24.515,263.417 24.169 C 262.683 23.823,260.171 22.622,257.833 21.500 C 255.496 20.378,252.908 19.140,252.083 18.749 C 251.258 18.358,248.821 17.195,246.667 16.164 C 244.512 15.133,241.925 13.895,240.917 13.414 C 239.908 12.933,237.396 11.733,235.333 10.748 C 230.649 8.511,228.876 7.664,224.167 5.416 C 222.104 4.432,219.667 3.268,218.750 2.830 C 215.267 1.168,212.797 0.000,212.774 0.006 C 212.761 0.009,212.315 0.161,211.783 0.344 M185.415 90.250 C 185.415 110.233,185.435 118.433,185.458 108.472 C 185.482 98.510,185.482 82.160,185.458 72.138 C 185.435 62.116,185.415 70.267,185.415 90.250 M55.040 164.458 C 54.295 165.994,52.623 169.425,51.324 172.083 C 50.024 174.742,48.378 178.117,47.666 179.583 C 46.954 181.050,45.566 183.900,44.582 185.917 C 39.961 195.384,39.204 196.937,37.905 199.625 L 36.515 202.500 49.841 202.500 L 63.167 202.500 63.167 199.833 L 63.167 197.167 54.167 197.167 C 49.217 197.167,45.167 197.104,45.167 197.026 C 45.167 196.949,46.338 194.493,47.770 191.568 C 52.977 180.931,55.013 176.756,55.696 175.310 C 56.552 173.498,56.440 173.483,57.420 175.542 C 57.867 176.481,59.351 179.537,60.719 182.333 C 62.087 185.129,63.934 188.917,64.823 190.750 C 65.713 192.583,67.366 195.977,68.498 198.292 L 70.556 202.500 73.519 202.500 L 76.481 202.500 76.166 201.792 C 75.992 201.402,75.164 199.696,74.324 198.000 C 73.485 196.304,72.476 194.242,72.083 193.417 C 71.690 192.592,70.265 189.667,68.916 186.917 C 67.566 184.167,66.030 181.017,65.500 179.917 C 64.971 178.817,63.400 175.592,62.009 172.750 C 60.618 169.908,58.834 166.252,58.045 164.625 C 57.256 162.998,56.561 161.667,56.501 161.667 C 56.442 161.667,55.784 162.923,55.040 164.458 M256.250 163.438 C 250.137 163.956,245.968 165.986,242.084 170.333 C 232.854 180.663,236.896 197.328,249.881 202.486 L 251.175 203.000 257.228 203.000 C 264.010 203.000,263.787 203.031,266.435 201.700 C 276.150 196.813,280.288 184.511,275.487 174.786 C 271.907 167.533,263.871 162.792,256.250 163.438 M298.535 163.510 C 277.580 165.573,273.415 194.410,292.912 202.443 L 294.250 202.994 300.349 202.997 C 307.214 203.000,307.034 203.026,309.677 201.651 C 323.204 194.614,324.465 175.811,312.000 167.018 C 308.171 164.316,303.280 163.042,298.535 163.510 M32.833 174.488 C 32.833 188.171,32.549 189.454,28.654 193.313 C 20.615 201.280,5.833 195.565,5.833 184.489 L 5.833 183.667 3.167 183.667 L 0.500 183.667 0.503 184.875 C 0.516 190.945,4.945 197.620,10.911 200.558 C 21.906 205.974,35.087 199.611,37.790 187.583 C 38.010 186.607,38.063 184.658,38.119 175.625 L 38.187 164.833 35.510 164.833 L 32.833 164.833 32.833 174.488 M79.500 183.667 L 79.500 202.500 82.167 202.500 L 84.833 202.500 84.833 187.750 C 84.833 179.637,84.889 173.000,84.958 173.000 C 85.026 173.000,88.063 175.981,91.708 179.624 L 98.333 186.248 105.083 179.500 L 111.833 172.752 111.833 187.626 L 111.833 202.500 114.500 202.500 L 117.167 202.500 117.167 183.667 L 117.167 164.833 114.459 164.833 L 111.752 164.833 105.042 171.541 L 98.333 178.248 91.624 171.541 L 84.915 164.833 82.208 164.833 L 79.500 164.833 79.500 183.667 M122.667 183.667 L 122.667 202.500 125.333 202.500 L 128.000 202.500 128.000 183.667 L 128.000 164.833 125.333 164.833 L 122.667 164.833 122.667 183.667 M133.374 183.625 L 133.417 202.417 149.542 202.459 L 165.667 202.502 165.667 199.834 L 165.667 197.167 152.250 197.167 L 138.833 197.167 138.833 183.667 L 138.833 170.167 152.250 170.167 L 165.667 170.167 165.667 167.500 L 165.667 164.833 149.499 164.833 L 133.332 164.833 133.374 183.625 M182.500 164.900 C 182.500 164.968,184.341 168.776,187.563 175.375 C 191.921 184.299,192.947 186.404,194.084 188.750 C 194.750 190.125,196.400 193.500,197.750 196.250 C 199.100 199.000,200.383 201.644,200.600 202.125 L 200.996 203.000 202.380 203.000 L 203.765 203.000 205.718 198.958 C 206.793 196.735,207.673 194.842,207.674 194.750 C 207.677 194.532,204.943 188.851,204.831 188.841 C 204.783 188.837,204.211 189.902,203.559 191.208 L 202.374 193.583 201.621 192.000 C 201.207 191.129,199.840 188.317,198.583 185.750 C 197.326 183.183,195.939 180.333,195.501 179.417 C 195.062 178.500,193.474 175.237,191.972 172.167 C 190.470 169.096,189.056 166.190,188.831 165.708 L 188.421 164.833 185.461 164.833 C 183.832 164.833,182.500 164.863,182.500 164.900 M198.667 164.896 C 198.667 164.930,199.650 166.974,200.853 169.438 C 202.055 171.901,203.621 175.117,204.333 176.583 C 205.044 178.050,206.414 180.862,207.376 182.833 C 208.339 184.804,210.096 188.404,211.282 190.833 C 212.468 193.262,214.290 196.994,215.331 199.125 L 217.223 203.000 218.582 203.000 L 219.940 203.000 221.502 199.792 C 222.361 198.027,224.146 194.371,225.468 191.667 C 227.963 186.564,229.952 182.481,232.167 177.917 C 232.879 176.450,234.595 172.933,235.981 170.102 C 237.366 167.271,238.500 164.927,238.500 164.894 C 238.500 164.861,237.163 164.833,235.528 164.833 L 232.557 164.833 231.622 166.792 C 231.108 167.869,229.698 170.775,228.490 173.250 C 224.085 182.272,221.945 186.655,220.286 190.059 L 218.592 193.535 216.748 189.809 C 215.734 187.760,214.584 185.407,214.193 184.580 L 213.482 183.078 214.971 179.997 C 215.790 178.303,217.603 174.592,218.999 171.750 C 220.395 168.908,221.715 166.190,221.933 165.708 L 222.329 164.833 219.364 164.833 L 216.398 164.833 213.827 170.108 C 212.412 173.009,211.104 175.709,210.919 176.108 C 210.734 176.507,210.541 176.833,210.489 176.833 C 210.401 176.833,209.378 174.758,205.951 167.625 L 204.609 164.833 201.638 164.833 C 200.004 164.833,198.667 164.861,198.667 164.896 M324.667 178.250 L 324.667 191.667 327.417 191.667 L 330.167 191.667 330.167 180.917 L 330.167 170.167 336.340 170.167 C 344.122 170.167,345.275 170.368,348.149 172.227 C 358.463 178.899,355.303 194.810,343.247 196.913 C 342.068 197.118,340.152 197.167,333.224 197.167 L 324.658 197.167 324.704 199.792 L 324.750 202.417 333.500 202.465 C 344.328 202.524,346.198 202.284,349.667 200.390 C 362.481 193.392,363.264 175.675,351.109 167.753 C 346.948 165.040,345.721 164.833,333.812 164.833 L 324.667 164.833 324.667 178.250 M371.153 165.087 C 360.814 167.597,360.293 182.240,370.417 185.778 L 371.750 186.244 380.250 186.331 C 389.899 186.428,389.555 186.379,391.041 187.866 C 393.737 190.561,392.919 195.124,389.460 196.687 L 388.583 197.083 375.792 197.130 L 363.000 197.177 363.000 199.838 L 363.000 202.500 375.708 202.497 C 389.742 202.494,389.699 202.497,391.912 201.445 C 398.645 198.247,400.132 189.459,394.836 184.164 C 391.833 181.160,391.138 181.000,381.092 181.000 C 372.554 181.000,372.087 180.953,370.686 179.946 C 367.809 177.880,367.613 173.939,370.267 171.514 C 371.807 170.106,371.119 170.167,385.447 170.167 L 398.000 170.167 398.000 167.500 L 398.000 164.833 385.042 164.847 C 374.742 164.858,371.892 164.907,371.153 165.087 M261.083 169.212 C 270.869 172.006,275.251 183.451,269.723 191.779 C 263.812 200.685,250.673 200.680,244.857 191.770 C 239.166 183.053,244.008 171.251,254.167 169.075 C 255.537 168.782,259.876 168.868,261.083 169.212 M303.479 169.089 C 313.750 171.038,318.676 183.375,312.658 192.080 C 305.393 202.589,288.855 199.476,285.986 187.060 C 283.533 176.444,292.685 167.042,303.479 169.089 M144.167 183.667 L 144.167 186.333 154.917 186.333 L 165.667 186.333 165.667 183.667 L 165.667 181.000 154.917 181.000 L 144.167 181.000 144.167 183.667 " stroke="none" fill="#e4e4e3" fill-rule="evenodd"/><path id="path2" d="M155.708 130.958 C 157.060 130.986,159.273 130.986,160.625 130.958 C 161.977 130.930,160.871 130.907,158.167 130.907 C 155.462 130.907,154.356 130.930,155.708 130.958 M178.828 141.792 L 177.917 142.750 178.875 141.839 C 179.765 140.993,179.910 140.833,179.786 140.833 C 179.760 140.833,179.329 141.265,178.828 141.792 M163.294 148.451 C 163.501 148.491,163.801 148.490,163.960 148.448 C 164.120 148.406,163.950 148.374,163.583 148.375 C 163.217 148.377,163.086 148.411,163.294 148.451 " stroke="none" fill="#fcc299" fill-rule="evenodd"/><path id="path3" d="M169.410 54.208 C 169.367 54.323,169.351 70.392,169.374 89.917 L 169.417 125.417 169.459 89.793 L 169.500 54.170 177.458 54.125 L 185.417 54.080 177.453 54.040 C 171.206 54.009,169.472 54.045,169.410 54.208 M197.125 54.125 C 199.348 54.151,202.985 54.151,205.208 54.125 C 207.431 54.099,205.612 54.077,201.167 54.077 C 196.721 54.077,194.902 54.099,197.125 54.125 M232.387 54.125 C 235.212 54.151,239.787 54.151,242.554 54.125 C 245.320 54.099,243.008 54.078,237.417 54.078 C 231.825 54.078,229.562 54.099,232.387 54.125 M265.776 54.125 C 265.733 54.194,269.322 54.250,273.750 54.250 C 278.178 54.250,281.767 54.194,281.724 54.125 C 281.682 54.056,278.093 54.000,273.750 54.000 C 269.407 54.000,265.818 54.056,265.776 54.125 M185.209 126.917 C 185.211 127.283,185.245 127.414,185.285 127.206 C 185.324 126.999,185.323 126.699,185.281 126.540 C 185.239 126.380,185.207 126.550,185.209 126.917 M206.720 148.083 C 206.754 148.413,206.878 148.417,217.419 148.419 L 228.083 148.420 217.470 148.376 C 207.546 148.334,206.852 148.312,206.772 148.040 C 206.706 147.817,206.694 147.827,206.720 148.083 M246.887 148.083 C 246.921 148.413,247.044 148.417,257.586 148.419 L 268.250 148.420 257.637 148.376 C 247.713 148.334,247.018 148.312,246.938 148.040 C 246.872 147.817,246.860 147.827,246.887 148.083 M155.708 148.458 C 157.060 148.486,159.273 148.486,160.625 148.458 C 161.977 148.430,160.871 148.407,158.167 148.407 C 155.462 148.407,154.356 148.430,155.708 148.458 " stroke="none" fill="#fcac73" fill-rule="evenodd"/></g></svg>