<svg id="svg" version="1.1" xmlns="http://www.w3.org/2000/svg" xmlns:xlink="http://www.w3.org/1999/xlink" width="400" height="207.04318936877075" viewBox="0, 0, 400,207.04318936877075"><g id="svgg"><path id="path0" d="M208.417 0.447 C 205.897 1.499,197.573 5.362,191.417 8.335 C 189.858 9.087,187.683 10.136,186.583 10.666 C 183.146 12.320,174.800 16.402,164.000 21.709 C 146.045 30.534,143.766 31.646,138.667 34.078 C 136.696 35.018,134.352 36.106,133.458 36.496 C 130.896 37.611,131.324 36.502,128.409 49.583 C 127.531 53.525,126.626 57.575,126.397 58.583 C 126.169 59.592,125.803 61.204,125.585 62.167 C 125.367 63.129,124.767 65.792,124.251 68.083 C 123.735 70.375,123.135 73.037,122.918 74.000 C 122.700 74.962,122.108 77.587,121.603 79.833 C 120.748 83.630,119.790 87.837,118.150 95.000 C 117.783 96.604,117.305 98.706,117.089 99.670 C 116.329 103.051,113.656 114.334,113.094 116.531 C 111.059 124.491,110.790 123.870,122.096 137.364 C 132.707 150.028,136.333 154.628,136.333 155.423 C 136.333 155.636,130.192 155.667,87.250 155.667 L 38.167 155.667 38.167 157.333 L 38.167 159.000 90.549 159.000 L 142.931 159.000 143.382 158.080 C 143.630 157.573,143.833 157.083,143.833 156.990 C 143.833 156.897,142.310 154.892,140.447 152.535 C 138.585 150.178,134.222 144.650,130.750 140.250 C 127.279 135.850,122.914 130.320,121.049 127.960 C 116.108 121.708,116.373 122.713,117.990 116.321 C 118.989 112.374,120.176 107.519,120.921 104.333 C 121.039 103.829,121.285 102.779,121.468 102.000 C 122.247 98.682,123.895 91.502,125.170 85.875 C 125.812 83.040,129.994 64.216,132.584 52.500 C 133.263 49.429,134.010 45.942,134.244 44.750 C 135.137 40.210,133.801 41.189,148.918 33.997 C 149.836 33.560,153.211 31.947,156.418 30.413 C 159.626 28.878,163.000 27.267,163.917 26.832 C 164.833 26.398,167.346 25.199,169.500 24.168 C 171.654 23.138,174.092 21.975,174.917 21.584 C 175.742 21.193,178.329 19.956,180.667 18.835 C 183.004 17.714,185.517 16.514,186.250 16.169 C 186.983 15.824,190.283 14.248,193.583 12.667 C 196.883 11.086,200.183 9.510,200.917 9.164 C 201.650 8.819,204.141 7.632,206.453 6.525 L 210.656 4.514 211.536 4.821 C 212.779 5.253,216.624 6.977,221.417 9.251 C 222.333 9.686,223.683 10.324,224.417 10.668 C 225.150 11.013,227.100 11.950,228.750 12.751 C 230.400 13.552,232.950 14.789,234.417 15.501 C 235.883 16.212,239.258 17.861,241.917 19.167 C 252.054 24.144,255.337 25.743,258.000 26.999 C 259.512 27.712,261.950 28.875,263.417 29.584 C 264.883 30.293,266.833 31.230,267.750 31.667 C 268.667 32.104,270.767 33.115,272.417 33.915 C 274.067 34.714,275.979 35.632,276.667 35.954 C 287.303 40.934,286.639 40.060,289.102 52.333 C 289.700 55.313,290.453 58.913,290.774 60.333 C 291.779 64.770,294.433 76.609,296.081 84.000 C 296.950 87.896,297.850 91.908,298.082 92.917 C 298.314 93.925,298.770 95.950,299.094 97.417 C 299.418 98.883,299.754 100.346,299.841 100.667 C 299.927 100.987,300.559 103.650,301.245 106.583 C 301.931 109.517,302.757 113.004,303.081 114.333 C 305.182 122.967,305.201 122.334,302.753 125.167 C 302.000 126.037,300.412 127.987,299.224 129.500 C 298.036 131.012,294.374 135.625,291.086 139.750 C 279.819 153.885,278.735 155.252,278.106 156.123 L 277.475 156.995 278.026 157.998 L 278.577 159.000 330.872 159.000 L 383.167 159.000 383.167 157.333 L 383.167 155.667 378.792 155.661 C 376.385 155.657,354.335 155.660,329.792 155.666 C 305.248 155.673,285.167 155.615,285.167 155.538 C 285.167 154.999,287.146 152.265,290.041 148.802 C 291.062 147.582,294.279 143.621,297.190 140.000 C 300.101 136.379,303.617 132.067,305.004 130.417 C 310.364 124.038,310.375 123.993,308.368 115.917 C 307.730 113.350,307.090 110.725,306.944 110.083 C 306.799 109.442,306.451 107.904,306.171 106.667 C 305.891 105.429,305.589 104.117,305.500 103.750 C 305.411 103.383,305.111 102.071,304.833 100.833 C 304.556 99.596,304.256 98.283,304.168 97.917 C 304.080 97.550,303.821 96.425,303.593 95.417 C 302.621 91.120,301.790 87.467,301.412 85.833 C 301.189 84.871,300.822 83.258,300.596 82.250 C 300.370 81.242,299.765 78.579,299.251 76.333 C 298.737 74.087,298.061 71.125,297.748 69.750 C 297.435 68.375,296.835 65.750,296.414 63.917 C 295.680 60.714,294.923 57.389,294.081 53.667 C 293.863 52.704,293.341 50.417,292.919 48.583 C 292.498 46.750,291.820 43.760,291.412 41.940 C 290.434 37.575,290.348 37.453,287.139 35.947 C 286.467 35.631,284.154 34.530,282.000 33.501 C 279.846 32.471,277.408 31.308,276.583 30.917 C 275.758 30.525,273.246 29.326,271.000 28.250 C 268.754 27.175,266.167 25.938,265.250 25.501 C 263.438 24.638,261.741 23.828,256.000 21.085 C 253.938 20.099,251.500 18.936,250.583 18.501 C 249.667 18.065,247.154 16.866,245.000 15.835 C 242.846 14.805,240.408 13.641,239.583 13.250 C 238.758 12.859,236.246 11.659,234.000 10.584 C 231.754 9.508,229.148 8.262,228.208 7.814 C 227.269 7.366,225.731 6.634,224.792 6.186 C 223.852 5.738,221.246 4.492,219.000 3.416 C 211.205 -0.315,211.978 -0.002,210.624 0.015 C 209.737 0.025,209.151 0.140,208.417 0.447 M54.355 162.208 C 53.903 163.148,52.542 165.942,51.330 168.417 C 50.118 170.892,48.507 174.192,47.750 175.750 C 46.248 178.840,44.080 183.286,41.167 189.250 C 40.137 191.358,38.788 194.133,38.170 195.417 C 37.551 196.700,36.660 198.519,36.188 199.458 L 35.330 201.167 48.665 201.167 L 62.000 201.167 62.000 198.500 L 62.000 195.833 53.000 195.833 C 47.648 195.833,44.000 195.771,44.000 195.680 C 44.000 195.596,44.980 193.515,46.177 191.055 C 49.347 184.543,52.391 178.313,53.937 175.169 L 55.291 172.417 56.460 174.833 C 57.103 176.162,58.621 179.275,59.833 181.750 C 61.046 184.225,62.508 187.225,63.082 188.417 C 63.657 189.608,65.293 192.965,66.719 195.875 L 69.311 201.167 72.235 201.167 L 75.158 201.167 75.011 200.792 C 74.930 200.585,73.574 197.792,71.997 194.583 C 70.420 191.375,68.659 187.775,68.085 186.583 C 67.510 185.392,66.047 182.392,64.834 179.917 C 63.621 177.442,62.196 174.517,61.667 173.417 C 59.056 167.991,55.344 160.500,55.265 160.500 C 55.217 160.500,54.807 161.269,54.355 162.208 M253.148 162.328 C 235.880 164.071,228.854 185.510,241.706 197.241 C 253.866 208.338,273.542 200.730,275.186 184.296 C 276.448 171.674,265.792 161.052,253.148 162.328 M296.750 162.268 C 279.678 163.854,271.895 183.793,283.545 196.100 C 294.801 207.992,314.536 202.339,317.932 186.250 C 320.612 173.554,309.590 161.075,296.750 162.268 M31.782 163.607 C 31.719 163.670,31.665 168.266,31.663 173.819 C 31.658 186.959,31.477 187.839,28.020 191.536 C 20.206 199.889,5.730 195.024,4.854 183.750 L 4.750 182.417 2.375 182.370 L -0.000 182.324 0.000 184.678 C 0.000 188.026,0.808 190.370,2.961 193.262 C 12.783 206.460,32.890 202.270,36.607 186.250 C 36.892 185.025,36.917 184.052,36.917 174.250 L 36.917 163.583 34.407 163.537 C 33.027 163.512,31.845 163.544,31.782 163.607 M78.167 182.333 L 78.167 201.167 80.833 201.167 L 83.500 201.167 83.500 186.376 L 83.500 171.585 90.209 178.292 L 96.918 184.999 103.626 178.292 L 110.333 171.584 110.333 186.375 L 110.333 201.167 113.000 201.167 L 115.667 201.167 115.667 182.333 L 115.667 163.500 113.042 163.500 L 110.418 163.500 103.667 170.250 L 96.915 177.000 90.167 170.250 L 83.418 163.500 80.792 163.500 L 78.167 163.500 78.167 182.333 M121.167 182.333 L 121.167 201.175 123.792 201.129 L 126.417 201.083 126.417 182.333 L 126.417 163.583 123.792 163.537 L 121.167 163.492 121.167 182.333 M131.833 182.333 L 131.833 201.167 147.917 201.167 L 164.000 201.167 164.000 198.500 L 164.000 195.833 150.583 195.833 L 137.167 195.833 137.167 182.333 L 137.167 168.833 150.583 168.833 L 164.000 168.833 164.000 166.167 L 164.000 163.500 147.917 163.500 L 131.833 163.500 131.833 182.333 M180.667 163.562 C 180.667 163.597,181.726 165.791,183.020 168.437 C 184.314 171.084,185.880 174.300,186.501 175.583 C 187.121 176.867,188.620 179.942,189.833 182.417 C 191.045 184.892,192.470 187.817,192.999 188.917 C 193.528 190.017,195.137 193.317,196.574 196.250 C 198.011 199.183,199.463 202.163,199.802 202.872 C 200.497 204.329,200.570 204.379,200.897 203.625 C 201.026 203.327,202.189 200.927,203.482 198.292 C 204.775 195.657,205.833 193.472,205.833 193.436 C 205.833 193.276,202.966 187.479,202.913 187.532 C 202.880 187.564,202.332 188.639,201.694 189.921 L 200.535 192.250 198.415 187.917 C 196.221 183.431,191.684 174.121,188.405 167.375 L 186.521 163.500 183.594 163.500 C 181.984 163.500,180.667 163.528,180.667 163.562 M196.833 163.631 C 196.833 163.704,197.441 164.998,198.184 166.506 C 198.927 168.015,199.895 170.000,200.334 170.917 C 200.773 171.833,202.236 174.833,203.585 177.583 C 204.934 180.333,206.508 183.558,207.083 184.750 C 207.658 185.942,209.286 189.279,210.699 192.167 C 212.113 195.054,214.009 198.935,214.914 200.792 C 215.818 202.648,216.607 204.167,216.667 204.167 C 216.727 204.167,217.197 203.285,217.711 202.208 C 218.225 201.131,219.821 197.850,221.258 194.917 C 222.694 191.983,224.378 188.533,224.999 187.250 C 226.061 185.057,227.143 182.842,231.916 173.083 C 234.585 167.626,236.500 163.651,236.500 163.568 C 236.500 163.531,235.185 163.500,233.577 163.500 L 230.654 163.500 229.513 165.875 C 228.886 167.181,227.455 170.125,226.333 172.417 C 225.211 174.708,223.823 177.558,223.249 178.750 C 222.674 179.942,220.951 183.467,219.420 186.583 L 216.635 192.250 215.948 190.833 C 215.570 190.054,214.420 187.710,213.392 185.625 L 211.523 181.833 213.781 177.208 C 215.023 174.664,217.006 170.603,218.186 168.183 C 219.367 165.763,220.333 163.720,220.333 163.642 C 220.333 163.564,219.033 163.500,217.444 163.500 L 214.555 163.500 213.125 166.458 C 208.866 175.267,208.640 175.694,208.402 175.379 C 208.278 175.216,208.175 175.035,208.172 174.975 C 208.169 174.916,206.997 172.479,205.568 169.559 C 204.138 166.639,202.903 164.081,202.822 163.875 C 202.672 163.492,196.833 163.254,196.833 163.631 M322.458 163.598 C 322.389 163.666,322.333 169.710,322.333 177.028 L 322.333 190.333 325.000 190.333 L 327.667 190.333 327.667 179.583 L 327.667 168.833 333.321 168.833 C 342.263 168.833,344.278 169.366,347.697 172.633 C 355.439 180.029,352.176 192.385,341.669 195.460 C 340.885 195.690,339.396 195.739,331.542 195.793 L 322.333 195.856 322.333 198.524 L 322.333 201.191 331.625 201.116 C 342.614 201.027,343.349 200.932,346.917 199.122 C 362.612 191.162,359.643 167.968,342.417 163.965 C 340.863 163.604,322.784 163.271,322.458 163.598 M369.750 163.667 C 360.921 164.995,357.401 175.565,363.692 181.858 C 366.588 184.755,367.662 184.993,377.860 184.997 C 385.453 185.000,385.660 185.009,386.589 185.364 C 390.995 187.050,391.148 193.283,386.833 195.318 L 385.917 195.750 373.208 195.797 L 360.500 195.843 360.500 198.513 L 360.500 201.182 373.458 201.123 C 385.279 201.070,386.503 201.039,387.406 200.769 C 397.154 197.855,398.126 184.671,388.895 180.564 C 387.093 179.762,386.053 179.679,377.798 179.672 C 368.942 179.666,368.984 179.672,367.406 178.094 C 364.749 175.437,365.599 170.868,369.040 169.313 L 369.917 168.917 382.625 168.870 L 395.333 168.823 395.333 166.162 L 395.333 163.500 382.958 163.521 C 376.152 163.532,370.208 163.598,369.750 163.667 M257.583 167.745 C 269.702 169.713,274.224 184.570,265.303 193.107 C 257.240 200.823,243.566 196.866,240.825 186.024 C 238.203 175.653,247.025 166.030,257.583 167.745 M300.583 167.745 C 310.231 169.312,315.758 179.824,311.576 188.652 C 307.149 197.996,294.718 200.059,287.561 192.637 C 277.660 182.371,286.508 165.459,300.583 167.745 M142.667 182.333 L 142.667 185.000 153.333 185.000 L 164.000 185.000 164.000 182.333 L 164.000 179.667 153.333 179.667 L 142.667 179.667 142.667 182.333 " stroke="none" fill="#050505" fill-rule="evenodd"></path><path id="path1" d="M167.796 89.458 L 167.750 125.417 167.358 126.359 C 166.120 129.336,164.151 130.000,156.565 130.000 L 151.833 130.000 151.833 138.583 L 151.833 147.167 157.208 147.164 C 162.707 147.160,164.842 146.996,166.962 146.410 C 174.971 144.199,180.676 138.463,182.683 130.602 C 183.512 127.357,183.500 127.941,183.500 89.465 L 183.500 53.500 175.671 53.500 L 167.841 53.500 167.796 89.458 M191.333 53.606 C 191.333 53.664,191.479 54.658,191.658 55.814 C 191.836 56.971,192.137 59.004,192.327 60.333 C 192.516 61.663,192.816 63.725,192.994 64.917 C 193.263 66.722,193.650 69.404,194.089 72.500 C 194.135 72.821,194.361 74.358,194.592 75.917 C 194.823 77.475,195.117 79.500,195.246 80.417 C 195.374 81.333,195.673 83.396,195.910 85.000 C 196.147 86.604,196.451 88.704,196.586 89.667 C 196.720 90.629,197.020 92.692,197.251 94.250 C 197.483 95.808,197.783 97.871,197.918 98.833 C 198.053 99.796,198.353 101.858,198.584 103.417 C 198.816 104.975,199.078 106.813,199.168 107.500 C 199.258 108.188,199.440 109.462,199.573 110.333 C 199.836 112.058,200.298 115.215,200.843 119.000 C 201.181 121.348,201.510 123.614,202.165 128.083 C 202.340 129.275,202.642 131.375,202.837 132.750 C 203.031 134.125,203.331 136.188,203.503 137.333 C 203.675 138.479,203.975 140.542,204.170 141.917 C 204.365 143.292,204.615 145.017,204.724 145.750 L 204.923 147.083 215.443 147.126 L 225.963 147.169 226.056 146.793 C 226.106 146.586,226.194 146.004,226.250 145.500 C 226.306 144.996,226.494 143.571,226.667 142.333 C 226.841 141.096,227.134 138.996,227.318 137.667 C 227.502 136.337,227.805 134.162,227.991 132.833 C 228.177 131.504,228.484 129.292,228.674 127.917 C 228.863 126.542,229.159 124.404,229.332 123.167 C 229.504 121.929,229.805 119.754,230.000 118.333 C 230.195 116.912,230.495 114.737,230.667 113.500 C 230.838 112.263,231.138 110.087,231.333 108.667 C 231.528 107.246,231.829 105.071,232.002 103.833 C 232.174 102.596,232.474 100.421,232.668 99.000 C 233.415 93.528,233.669 91.691,233.912 90.000 C 234.407 86.543,234.680 84.561,234.840 83.250 C 235.073 81.341,235.357 79.635,235.430 79.707 C 235.464 79.742,235.606 80.590,235.746 81.593 C 235.885 82.596,236.110 84.167,236.245 85.083 C 236.380 86.000,236.682 88.175,236.917 89.917 C 237.151 91.658,237.449 93.796,237.579 94.667 C 237.708 95.537,237.972 97.412,238.166 98.833 C 238.359 100.254,238.658 102.392,238.830 103.583 C 239.002 104.775,239.303 106.912,239.498 108.333 C 239.693 109.754,239.995 111.929,240.170 113.167 C 240.579 116.059,241.078 119.615,241.503 122.667 C 241.688 123.996,241.992 126.171,242.178 127.500 C 242.365 128.829,242.664 130.967,242.844 132.250 C 243.024 133.533,243.285 135.371,243.425 136.333 C 243.564 137.296,243.709 138.346,243.747 138.667 C 243.784 138.987,243.970 140.337,244.159 141.667 C 244.348 142.996,244.599 144.758,244.716 145.583 L 244.929 147.083 255.446 147.126 L 265.963 147.169 266.056 146.793 C 266.108 146.586,266.231 145.742,266.331 144.917 C 266.432 144.092,266.618 142.742,266.746 141.917 C 266.873 141.092,267.137 139.292,267.331 137.917 C 267.526 136.542,267.825 134.479,267.997 133.333 C 268.169 132.188,268.469 130.125,268.664 128.750 C 268.858 127.375,269.169 125.200,269.354 123.917 C 269.539 122.633,269.836 120.571,270.015 119.333 C 270.193 118.096,270.451 116.333,270.588 115.417 C 270.726 114.500,270.911 113.188,270.999 112.500 C 271.088 111.813,271.501 108.925,271.917 106.083 C 272.334 103.242,272.785 100.092,272.919 99.083 C 273.054 98.075,273.203 97.063,273.250 96.833 C 273.297 96.604,273.446 95.592,273.581 94.583 C 273.715 93.575,274.014 91.475,274.243 89.917 C 274.473 88.358,274.699 86.821,274.744 86.500 C 274.790 86.179,274.983 84.829,275.173 83.500 C 275.363 82.171,275.669 80.033,275.852 78.750 C 276.036 77.467,276.336 75.367,276.519 74.083 C 276.703 72.800,276.993 70.813,277.165 69.667 C 277.336 68.521,277.636 66.458,277.830 65.083 C 278.845 57.910,279.332 54.576,279.452 53.958 L 279.542 53.500 271.599 53.500 C 265.386 53.500,263.644 53.545,263.600 53.708 C 263.569 53.823,263.381 55.154,263.181 56.667 C 262.981 58.179,262.673 60.504,262.498 61.833 C 261.069 72.657,259.315 88.076,257.834 102.833 C 257.646 104.712,257.380 107.337,257.243 108.667 C 256.862 112.370,256.509 115.978,256.239 118.917 C 256.105 120.383,255.924 122.221,255.837 123.000 C 255.751 123.779,255.593 125.504,255.485 126.833 C 255.226 130.050,255.099 130.149,254.763 127.397 C 254.608 126.124,254.412 124.633,254.328 124.083 C 254.244 123.533,254.066 122.146,253.931 121.000 C 253.630 118.433,253.243 115.338,252.920 112.917 C 252.786 111.908,252.522 109.846,252.334 108.333 C 251.851 104.446,251.374 100.658,251.000 97.750 C 250.823 96.375,250.523 94.013,250.333 92.500 C 250.143 90.987,249.842 88.625,249.665 87.250 C 249.487 85.875,249.186 83.512,248.997 82.000 C 248.808 80.487,248.508 78.125,248.331 76.750 C 248.153 75.375,247.853 73.012,247.664 71.500 C 247.475 69.987,247.177 67.625,247.001 66.250 C 246.542 62.655,246.023 58.559,245.734 56.250 C 245.596 55.150,245.448 54.081,245.405 53.875 L 245.327 53.500 235.417 53.500 L 225.506 53.500 225.429 53.875 C 225.344 54.284,224.914 57.530,224.750 59.000 C 224.693 59.504,224.541 60.704,224.411 61.667 C 224.281 62.629,224.022 64.654,223.836 66.167 C 223.649 67.679,223.350 70.042,223.172 71.417 C 222.993 72.792,222.693 75.154,222.503 76.667 C 222.314 78.179,222.014 80.542,221.836 81.917 C 221.658 83.292,221.358 85.654,221.169 87.167 C 220.823 89.925,220.422 93.088,219.827 97.750 C 219.651 99.125,219.353 101.487,219.164 103.000 C 218.975 104.513,218.676 106.875,218.499 108.250 C 218.323 109.625,218.064 111.650,217.924 112.750 C 217.784 113.850,217.554 115.650,217.413 116.750 C 217.273 117.850,217.051 119.612,216.922 120.667 C 216.645 122.925,216.238 126.157,215.972 128.225 C 215.716 130.207,215.584 129.822,215.269 126.167 C 215.122 124.471,214.891 121.958,214.755 120.583 C 214.619 119.208,214.394 116.921,214.255 115.500 C 214.116 114.079,213.885 111.754,213.743 110.333 C 213.600 108.912,213.377 106.662,213.246 105.333 C 212.837 101.181,212.511 98.001,212.255 95.667 C 212.119 94.429,211.853 91.954,211.664 90.167 C 211.083 84.682,210.166 76.570,209.668 72.500 C 209.493 71.079,209.191 68.604,208.996 67.000 C 208.800 65.396,208.501 63.071,208.331 61.833 C 208.161 60.596,207.857 58.308,207.656 56.750 C 207.455 55.192,207.265 53.823,207.234 53.708 C 207.173 53.487,191.333 53.385,191.333 53.606 " stroke="none" fill="#fc6404" fill-rule="evenodd"></path><path id="path2" d="M155.167 25.917 C 154.938 26.048,154.825 26.155,154.917 26.155 C 155.008 26.155,155.271 26.048,155.500 25.917 C 155.729 25.786,155.842 25.678,155.750 25.678 C 155.658 25.678,155.396 25.786,155.167 25.917 M159.333 29.000 C 159.012 29.176,158.810 29.323,158.883 29.326 C 159.060 29.336,160.000 28.847,160.000 28.746 C 160.000 28.637,159.990 28.640,159.333 29.000 M146.000 30.417 C 145.771 30.548,145.658 30.655,145.750 30.655 C 145.842 30.655,146.104 30.548,146.333 30.417 C 146.563 30.286,146.675 30.178,146.583 30.178 C 146.492 30.178,146.229 30.286,146.000 30.417 M131.703 37.292 C 131.445 37.544,131.388 37.629,131.575 37.481 C 131.763 37.333,132.067 37.129,132.250 37.028 C 132.433 36.926,132.491 36.841,132.378 36.838 C 132.264 36.836,131.961 37.040,131.703 37.292 M285.333 40.750 C 285.644 41.071,285.936 41.333,285.982 41.333 C 286.028 41.333,285.811 41.071,285.500 40.750 C 285.189 40.429,284.897 40.167,284.851 40.167 C 284.805 40.167,285.022 40.429,285.333 40.750 M309.709 122.417 C 309.711 122.783,309.745 122.914,309.785 122.706 C 309.824 122.499,309.823 122.199,309.781 122.040 C 309.739 121.880,309.707 122.050,309.709 122.417 M278.167 155.833 C 277.971 156.108,277.848 156.333,277.894 156.333 C 277.940 156.333,278.138 156.108,278.333 155.833 C 278.529 155.558,278.652 155.333,278.606 155.333 C 278.560 155.333,278.362 155.558,278.167 155.833 M285.167 155.542 C 285.167 155.610,304.573 155.648,328.292 155.626 C 352.010 155.603,364.404 155.566,355.833 155.543 C 314.190 155.429,285.167 155.429,285.167 155.542 M62.722 155.625 C 76.273 155.649,98.398 155.649,111.888 155.625 C 125.379 155.601,114.292 155.582,87.250 155.582 C 60.208 155.582,49.171 155.601,62.722 155.625 M378.786 155.625 L 383.155 155.672 383.209 157.378 L 383.263 159.083 383.298 157.292 L 383.333 155.500 378.875 155.539 L 374.417 155.578 378.786 155.625 M143.708 157.375 C 143.529 157.865,143.534 157.886,143.755 157.593 C 143.967 157.313,144.092 156.833,143.953 156.833 C 143.927 156.833,143.817 157.077,143.708 157.375 M55.067 160.526 C 54.996 160.641,55.021 160.673,55.131 160.606 C 55.231 160.544,55.390 160.626,55.485 160.788 C 55.676 161.116,55.722 161.005,55.566 160.597 C 55.446 160.286,55.234 160.256,55.067 160.526 M253.292 162.284 C 253.498 162.324,253.835 162.324,254.042 162.284 C 254.248 162.245,254.079 162.212,253.667 162.212 C 253.254 162.212,253.085 162.245,253.292 162.284 M256.377 162.286 C 256.631 162.325,257.006 162.324,257.211 162.284 C 257.416 162.244,257.208 162.213,256.750 162.214 C 256.292 162.216,256.124 162.248,256.377 162.286 M296.292 162.284 C 296.498 162.324,296.835 162.324,297.042 162.284 C 297.248 162.245,297.079 162.212,296.667 162.212 C 296.254 162.212,296.085 162.245,296.292 162.284 M299.377 162.286 C 299.631 162.325,300.006 162.324,300.211 162.284 C 300.416 162.244,300.208 162.213,299.750 162.214 C 299.292 162.216,299.124 162.248,299.377 162.286 M37.000 173.383 L 37.083 183.250 37.126 173.510 C 37.150 168.153,37.113 163.712,37.043 163.643 C 36.974 163.573,36.954 167.957,37.000 173.383 M90.166 170.208 C 93.878 173.944,96.916 177.000,96.917 177.000 C 96.918 177.000,99.955 173.944,103.667 170.208 L 110.417 163.417 103.666 170.125 L 96.916 176.833 90.166 170.125 L 83.417 163.417 90.166 170.208 M115.747 182.333 C 115.747 192.737,115.767 196.994,115.792 191.792 C 115.816 186.590,115.816 178.077,115.792 172.875 C 115.767 167.673,115.747 171.929,115.747 182.333 M121.081 182.333 C 121.081 192.737,121.101 196.994,121.125 191.792 C 121.149 186.590,121.149 178.077,121.125 172.875 C 121.101 167.673,121.081 171.929,121.081 182.333 M164.037 166.125 L 164.000 168.833 150.583 168.833 L 137.167 168.833 137.167 182.333 L 137.167 195.833 150.579 195.833 L 163.992 195.833 164.044 198.500 L 164.096 201.167 164.090 198.459 L 164.083 195.750 150.708 195.707 L 137.333 195.665 137.333 182.332 L 137.333 169.000 150.672 169.000 C 161.420 169.000,164.027 168.958,164.093 168.785 C 164.139 168.666,164.153 167.410,164.125 165.993 L 164.074 163.417 164.037 166.125 M339.627 163.618 C 339.834 163.658,340.134 163.656,340.294 163.615 C 340.453 163.573,340.283 163.540,339.917 163.542 C 339.550 163.544,339.420 163.578,339.627 163.618 M78.081 182.417 C 78.081 192.775,78.101 196.988,78.125 191.779 C 78.149 186.570,78.149 178.095,78.125 172.946 C 78.101 167.796,78.081 172.058,78.081 182.417 M363.158 167.125 L 362.583 167.750 363.208 167.176 C 363.790 166.641,363.910 166.500,363.783 166.500 C 363.755 166.500,363.474 166.781,363.158 167.125 M269.417 168.167 C 270.053 168.808,270.612 169.333,270.658 169.333 C 270.704 169.333,270.220 168.808,269.583 168.167 C 268.947 167.525,268.388 167.000,268.342 167.000 C 268.296 167.000,268.780 167.525,269.417 168.167 M240.910 168.042 L 240.083 168.917 240.958 168.090 C 241.440 167.635,241.833 167.241,241.833 167.215 C 241.833 167.090,241.679 167.229,240.910 168.042 M283.828 168.125 L 282.917 169.083 283.875 168.172 C 284.765 167.326,284.910 167.167,284.786 167.167 C 284.760 167.167,284.329 167.598,283.828 168.125 M312.333 168.083 C 312.831 168.587,313.276 169.000,313.322 169.000 C 313.368 169.000,312.998 168.587,312.500 168.083 C 312.002 167.579,311.557 167.167,311.511 167.167 C 311.466 167.167,311.835 167.579,312.333 168.083 M254.458 167.622 C 254.848 167.657,255.485 167.657,255.875 167.622 C 256.265 167.587,255.946 167.558,255.167 167.558 C 254.387 167.558,254.069 167.587,254.458 167.622 M297.458 167.622 C 297.848 167.657,298.485 167.657,298.875 167.622 C 299.265 167.587,298.946 167.558,298.167 167.558 C 297.387 167.558,297.069 167.587,297.458 167.622 M350.500 167.879 C 350.500 167.904,351.081 168.486,351.792 169.171 L 353.083 170.417 351.838 169.125 C 350.680 167.925,350.500 167.757,350.500 167.879 M327.667 179.579 L 327.667 190.325 325.000 190.377 L 322.333 190.429 325.041 190.423 L 327.750 190.417 327.793 179.710 L 327.836 169.004 333.710 168.958 L 339.583 168.912 333.625 168.873 L 327.667 168.833 327.667 179.579 M376.721 168.958 C 380.188 168.983,385.813 168.983,389.221 168.958 C 392.628 168.933,389.792 168.912,382.917 168.913 C 376.042 168.913,373.253 168.933,376.721 168.958 M200.116 170.748 C 200.268 171.068,200.423 171.300,200.459 171.263 C 200.535 171.187,200.029 170.167,199.915 170.167 C 199.873 170.167,199.963 170.428,200.116 170.748 M281.500 170.833 C 281.304 171.108,281.181 171.333,281.227 171.333 C 281.273 171.333,281.471 171.108,281.667 170.833 C 281.862 170.558,281.985 170.333,281.939 170.333 C 281.894 170.333,281.696 170.558,281.500 170.833 M265.417 171.833 C 266.053 172.475,266.612 173.000,266.658 173.000 C 266.704 173.000,266.220 172.475,265.583 171.833 C 264.947 171.192,264.388 170.667,264.342 170.667 C 264.296 170.667,264.780 171.192,265.417 171.833 M287.662 171.958 L 286.583 173.083 287.708 172.005 C 288.753 171.003,288.910 170.833,288.787 170.833 C 288.761 170.833,288.255 171.340,287.662 171.958 M308.500 171.917 C 309.091 172.512,309.611 173.000,309.657 173.000 C 309.703 173.000,309.257 172.512,308.667 171.917 C 308.076 171.321,307.555 170.833,307.510 170.833 C 307.464 170.833,307.909 171.321,308.500 171.917 M244.661 171.958 L 243.750 172.917 244.708 172.006 C 245.599 171.159,245.743 171.000,245.619 171.000 C 245.593 171.000,245.162 171.431,244.661 171.958 M90.083 178.333 C 93.749 182.000,96.786 185.000,96.832 185.000 C 96.878 185.000,93.916 182.000,90.250 178.333 C 86.584 174.667,83.547 171.667,83.502 171.667 C 83.456 171.667,86.418 174.667,90.083 178.333 M103.583 178.375 L 96.917 185.083 103.625 178.417 C 109.860 172.222,110.408 171.667,110.291 171.667 C 110.268 171.667,107.249 174.685,103.583 178.375 M280.250 172.833 C 280.108 173.108,280.029 173.333,280.075 173.333 C 280.121 173.333,280.274 173.108,280.417 172.833 C 280.559 172.558,280.638 172.333,280.592 172.333 C 280.546 172.333,280.392 172.558,280.250 172.833 M55.417 173.000 C 55.559 173.275,55.713 173.500,55.759 173.500 C 55.804 173.500,55.726 173.275,55.583 173.000 C 55.441 172.725,55.287 172.500,55.241 172.500 C 55.196 172.500,55.274 172.725,55.417 173.000 M360.385 174.250 C 360.386 174.800,360.417 175.005,360.454 174.705 C 360.491 174.406,360.490 173.956,360.452 173.705 C 360.414 173.455,360.384 173.700,360.385 174.250 M192.283 175.415 C 192.435 175.734,192.589 175.966,192.625 175.930 C 192.702 175.854,192.196 174.833,192.082 174.833 C 192.040 174.833,192.130 175.095,192.283 175.415 M53.360 176.257 C 53.081 176.870,53.134 177.001,53.436 176.444 C 53.577 176.183,53.662 175.939,53.623 175.901 C 53.585 175.863,53.467 176.023,53.360 176.257 M367.333 178.083 C 367.644 178.404,367.936 178.667,367.982 178.667 C 368.028 178.667,367.811 178.404,367.500 178.083 C 367.189 177.762,366.897 177.500,366.851 177.500 C 366.805 177.500,367.022 177.762,367.333 178.083 M228.527 179.924 C 228.248 180.537,228.301 180.667,228.603 180.110 C 228.744 179.850,228.828 179.606,228.790 179.568 C 228.752 179.530,228.634 179.690,228.527 179.924 M142.577 182.333 L 142.583 185.083 153.333 185.083 L 164.083 185.083 164.090 182.375 L 164.096 179.666 164.044 182.333 L 163.992 185.000 153.333 185.000 L 142.675 185.000 142.623 182.292 L 142.570 179.583 142.577 182.333 M385.875 179.782 C 386.035 179.823,386.298 179.823,386.458 179.782 C 386.619 179.740,386.488 179.705,386.167 179.705 C 385.846 179.705,385.715 179.740,385.875 179.782 M275.209 180.417 C 275.211 180.783,275.245 180.914,275.285 180.706 C 275.324 180.499,275.323 180.199,275.281 180.040 C 275.239 179.880,275.207 180.050,275.209 180.417 M318.212 180.667 C 318.212 181.079,318.245 181.248,318.284 181.042 C 318.324 180.835,318.324 180.498,318.284 180.292 C 318.245 180.085,318.212 180.254,318.212 180.667 M351.705 180.500 C 351.705 180.821,351.740 180.952,351.782 180.792 C 351.823 180.631,351.823 180.369,351.782 180.208 C 351.740 180.048,351.705 180.179,351.705 180.500 M235.065 182.333 C 235.065 183.571,235.092 184.077,235.124 183.458 C 235.156 182.840,235.156 181.827,235.124 181.208 C 235.092 180.590,235.065 181.096,235.065 182.333 M278.039 180.833 C 278.039 181.154,278.073 181.285,278.115 181.125 C 278.157 180.965,278.157 180.702,278.115 180.542 C 278.073 180.381,278.039 180.512,278.039 180.833 M269.895 182.333 C 269.895 183.296,269.923 183.690,269.956 183.208 C 269.990 182.727,269.990 181.940,269.956 181.458 C 269.923 180.977,269.895 181.371,269.895 182.333 M312.893 182.333 C 312.893 183.204,312.922 183.560,312.956 183.125 C 312.990 182.690,312.990 181.977,312.956 181.542 C 312.922 181.106,312.893 181.463,312.893 182.333 M357.227 182.333 C 357.227 183.204,357.255 183.560,357.289 183.125 C 357.324 182.690,357.324 181.977,357.289 181.542 C 357.255 181.106,357.227 181.463,357.227 182.333 M240.392 182.333 C 240.392 183.112,240.420 183.431,240.455 183.042 C 240.490 182.652,240.490 182.015,240.455 181.625 C 240.420 181.235,240.392 181.554,240.392 182.333 M283.392 182.333 C 283.392 183.112,283.420 183.431,283.455 183.042 C 283.490 182.652,283.490 182.015,283.455 181.625 C 283.420 181.235,283.392 181.554,283.392 182.333 M363.167 181.552 C 363.167 181.581,363.410 181.825,363.708 182.094 L 364.250 182.583 363.760 182.042 C 363.304 181.537,363.167 181.423,363.167 181.552 M31.539 183.667 C 31.539 183.987,31.573 184.119,31.615 183.958 C 31.657 183.798,31.657 183.535,31.615 183.375 C 31.573 183.215,31.539 183.346,31.539 183.667 M278.039 183.833 C 278.039 184.154,278.073 184.285,278.115 184.125 C 278.157 183.965,278.157 183.702,278.115 183.542 C 278.073 183.381,278.039 183.512,278.039 183.833 M4.875 184.083 C 4.877 184.450,4.911 184.580,4.951 184.373 C 4.991 184.166,4.990 183.866,4.948 183.706 C 4.906 183.547,4.874 183.717,4.875 184.083 M212.616 184.081 C 212.768 184.401,212.923 184.633,212.959 184.597 C 213.035 184.520,212.529 183.500,212.415 183.500 C 212.373 183.500,212.463 183.762,212.616 184.081 M318.209 184.083 C 318.211 184.450,318.245 184.580,318.285 184.373 C 318.324 184.166,318.323 183.866,318.281 183.706 C 318.239 183.547,318.207 183.717,318.209 184.083 M275.209 184.250 C 275.211 184.617,275.245 184.747,275.285 184.540 C 275.324 184.332,275.323 184.032,275.281 183.873 C 275.239 183.714,275.207 183.883,275.209 184.250 M351.705 184.167 C 351.705 184.487,351.740 184.619,351.782 184.458 C 351.823 184.298,351.823 184.035,351.782 183.875 C 351.740 183.715,351.705 183.846,351.705 184.167 M357.039 185.167 C 357.039 185.487,357.073 185.619,357.115 185.458 C 357.157 185.298,357.157 185.035,357.115 184.875 C 357.073 184.715,357.039 184.846,357.039 185.167 M374.292 185.125 C 376.423 185.151,379.910 185.151,382.042 185.125 C 384.173 185.098,382.429 185.077,378.167 185.077 C 373.904 185.077,372.160 185.098,374.292 185.125 M68.345 187.083 C 68.345 187.175,68.452 187.438,68.583 187.667 C 68.714 187.896,68.822 188.008,68.822 187.917 C 68.822 187.825,68.714 187.563,68.583 187.333 C 68.452 187.104,68.345 186.992,68.345 187.083 M348.993 190.542 C 348.683 190.931,348.562 191.144,348.723 191.015 C 349.026 190.771,349.740 189.833,349.623 189.833 C 349.586 189.833,349.302 190.152,348.993 190.542 M242.996 190.828 C 243.190 191.101,243.434 191.376,243.538 191.440 C 243.642 191.504,243.517 191.282,243.260 190.945 C 242.703 190.215,242.493 190.122,242.996 190.828 M27.578 191.875 L 26.583 192.917 27.625 191.922 C 28.198 191.375,28.667 190.906,28.667 190.880 C 28.667 190.757,28.502 190.907,27.578 191.875 M280.250 191.833 C 280.392 192.108,280.546 192.333,280.592 192.333 C 280.638 192.333,280.559 192.108,280.417 191.833 C 280.274 191.558,280.121 191.333,280.075 191.333 C 280.029 191.333,280.108 191.558,280.250 191.833 M266.240 192.042 L 265.750 192.583 266.292 192.094 C 266.797 191.638,266.910 191.500,266.781 191.500 C 266.752 191.500,266.509 191.744,266.240 192.042 M309.240 192.042 L 308.750 192.583 309.292 192.094 C 309.797 191.638,309.910 191.500,309.781 191.500 C 309.752 191.500,309.509 191.744,309.240 192.042 M244.667 192.750 C 245.257 193.346,245.778 193.833,245.824 193.833 C 245.870 193.833,245.424 193.346,244.833 192.750 C 244.243 192.154,243.722 191.667,243.676 191.667 C 243.630 191.667,244.076 192.154,244.667 192.750 M287.667 192.750 C 288.257 193.346,288.778 193.833,288.824 193.833 C 288.870 193.833,288.424 193.346,287.833 192.750 C 287.243 192.154,286.722 191.667,286.676 191.667 C 286.630 191.667,287.076 192.154,287.667 192.750 M307.991 193.292 L 307.417 193.917 308.042 193.342 C 308.623 192.808,308.743 192.667,308.616 192.667 C 308.588 192.667,308.307 192.948,307.991 193.292 M353.573 193.445 C 353.316 193.782,353.191 194.004,353.295 193.940 C 353.509 193.808,354.230 192.833,354.114 192.833 C 354.073 192.833,353.830 193.109,353.573 193.445 M3.500 194.219 C 3.500 194.248,3.744 194.491,4.042 194.760 L 4.583 195.250 4.094 194.708 C 3.638 194.203,3.500 194.090,3.500 194.219 M195.512 194.250 C 195.512 194.342,195.619 194.604,195.750 194.833 C 195.881 195.063,195.988 195.175,195.988 195.083 C 195.988 194.992,195.881 194.729,195.750 194.500 C 195.619 194.271,195.512 194.158,195.512 194.250 M352.573 194.708 L 352.083 195.250 352.625 194.760 C 353.130 194.304,353.243 194.167,353.115 194.167 C 353.086 194.167,352.842 194.410,352.573 194.708 M31.577 195.542 L 30.750 196.417 31.625 195.590 C 32.438 194.821,32.576 194.667,32.452 194.667 C 32.426 194.667,32.032 195.060,31.577 195.542 M269.412 196.542 L 268.250 197.750 269.458 196.588 C 270.581 195.508,270.743 195.333,270.621 195.333 C 270.595 195.333,270.051 195.877,269.412 196.542 M312.412 196.542 L 311.250 197.750 312.458 196.588 C 313.581 195.508,313.743 195.333,313.621 195.333 C 313.595 195.333,313.051 195.877,312.412 196.542 M283.833 196.583 C 284.424 197.179,284.945 197.667,284.990 197.667 C 285.036 197.667,284.591 197.179,284.000 196.583 C 283.409 195.987,282.889 195.500,282.843 195.500 C 282.797 195.500,283.243 195.987,283.833 196.583 M17.621 195.787 C 17.917 195.824,18.442 195.824,18.788 195.788 C 19.134 195.752,18.892 195.722,18.250 195.721 C 17.608 195.721,17.325 195.750,17.621 195.787 M48.458 195.792 C 50.956 195.817,55.044 195.817,57.542 195.792 C 60.040 195.766,57.996 195.744,53.000 195.744 C 48.004 195.744,45.960 195.766,48.458 195.792 M326.637 195.792 C 329.049 195.818,332.949 195.818,335.303 195.792 C 337.657 195.765,335.683 195.744,330.917 195.744 C 326.150 195.744,324.224 195.766,326.637 195.792 M360.407 195.882 C 360.361 196.000,360.347 197.257,360.375 198.674 L 360.426 201.250 360.463 198.543 L 360.500 195.835 372.958 195.792 L 385.417 195.748 372.953 195.707 C 362.891 195.674,360.474 195.708,360.407 195.882 M240.917 196.667 C 241.368 197.125,241.775 197.500,241.821 197.500 C 241.867 197.500,241.535 197.125,241.083 196.667 C 240.632 196.208,240.225 195.833,240.179 195.833 C 240.133 195.833,240.465 196.208,240.917 196.667 M5.333 196.052 C 5.333 196.081,5.577 196.325,5.875 196.594 L 6.417 197.083 5.927 196.542 C 5.471 196.037,5.333 195.923,5.333 196.052 M350.740 196.542 L 350.250 197.083 350.792 196.594 C 351.297 196.138,351.410 196.000,351.281 196.000 C 351.252 196.000,351.009 196.244,350.740 196.542 M37.075 197.349 C 36.929 197.632,36.838 197.894,36.875 197.930 C 36.911 197.966,37.065 197.734,37.217 197.415 C 37.560 196.696,37.441 196.641,37.075 197.349 M392.740 197.375 L 392.250 197.917 392.792 197.427 C 393.297 196.971,393.410 196.833,393.281 196.833 C 393.252 196.833,393.009 197.077,392.740 197.375 M254.629 197.122 C 255.021 197.157,255.621 197.157,255.963 197.121 C 256.304 197.085,255.983 197.057,255.250 197.057 C 254.517 197.058,254.237 197.087,254.629 197.122 M297.542 197.121 C 297.885 197.157,298.448 197.157,298.792 197.121 C 299.135 197.085,298.854 197.056,298.167 197.056 C 297.479 197.056,297.198 197.085,297.542 197.121 M213.178 197.417 C 213.178 197.508,213.286 197.771,213.417 198.000 C 213.548 198.229,213.655 198.342,213.655 198.250 C 213.655 198.158,213.548 197.896,213.417 197.667 C 213.286 197.438,213.178 197.325,213.178 197.417 M245.167 199.908 C 245.167 199.954,245.392 200.108,245.667 200.250 C 245.942 200.392,246.167 200.471,246.167 200.425 C 246.167 200.379,245.942 200.226,245.667 200.083 C 245.392 199.941,245.167 199.862,245.167 199.908 M288.167 199.908 C 288.167 199.954,288.392 200.108,288.667 200.250 C 288.942 200.392,289.167 200.471,289.167 200.425 C 289.167 200.379,288.942 200.226,288.667 200.083 C 288.392 199.941,288.167 199.862,288.167 199.908 M307.625 200.095 C 307.002 200.433,307.040 200.574,307.667 200.250 C 307.942 200.108,308.167 199.956,308.167 199.912 C 308.167 199.805,308.149 199.811,307.625 200.095 M16.375 201.115 C 16.535 201.157,16.798 201.157,16.958 201.115 C 17.119 201.073,16.987 201.039,16.667 201.039 C 16.346 201.039,16.215 201.073,16.375 201.115 M339.708 201.115 C 339.869 201.157,340.131 201.157,340.292 201.115 C 340.452 201.073,340.321 201.039,340.000 201.039 C 339.679 201.039,339.548 201.073,339.708 201.115 M201.449 202.419 C 201.297 202.738,201.206 203.000,201.248 203.000 C 201.362 203.000,201.868 201.980,201.792 201.903 C 201.756 201.867,201.602 202.099,201.449 202.419 M253.208 202.448 C 253.369 202.490,253.631 202.490,253.792 202.448 C 253.952 202.406,253.821 202.372,253.500 202.372 C 253.179 202.372,253.048 202.406,253.208 202.448 M296.208 202.448 C 296.369 202.490,296.631 202.490,296.792 202.448 C 296.952 202.406,296.821 202.372,296.500 202.372 C 296.179 202.372,296.048 202.406,296.208 202.448 M299.542 202.448 C 299.702 202.490,299.965 202.490,300.125 202.448 C 300.285 202.406,300.154 202.372,299.833 202.372 C 299.512 202.372,299.381 202.406,299.542 202.448 " stroke="none" fill="#969696" fill-rule="evenodd"></path><path id="path3" d="M167.708 88.623 L 167.749 123.917 167.792 88.708 L 167.834 53.500 175.667 53.500 L 183.499 53.500 183.542 89.000 L 183.584 124.500 183.584 88.958 L 183.583 53.417 175.625 53.373 L 167.667 53.330 167.708 88.623 M191.276 53.458 C 191.233 53.527,194.829 53.583,199.266 53.583 C 203.703 53.583,207.333 53.527,207.333 53.458 C 207.333 53.390,203.738 53.333,199.343 53.333 C 194.949 53.333,191.318 53.390,191.276 53.458 M225.346 53.625 C 225.354 53.799,225.393 53.833,225.444 53.708 C 225.510 53.545,227.662 53.500,235.417 53.500 C 243.172 53.500,245.324 53.545,245.390 53.708 C 245.440 53.833,245.479 53.799,245.487 53.625 C 245.499 53.350,244.914 53.333,235.417 53.333 C 225.920 53.333,225.334 53.350,225.346 53.625 M263.500 53.458 C 263.500 53.527,267.130 53.583,271.567 53.583 C 276.004 53.583,279.600 53.527,279.558 53.458 C 279.515 53.390,275.885 53.333,271.490 53.333 C 267.096 53.333,263.500 53.390,263.500 53.458 M225.205 54.667 C 225.205 54.987,225.240 55.119,225.282 54.958 C 225.323 54.798,225.323 54.535,225.282 54.375 C 225.240 54.215,225.205 54.346,225.205 54.667 M245.539 54.667 C 245.539 54.987,245.573 55.119,245.615 54.958 C 245.657 54.798,245.657 54.535,245.615 54.375 C 245.573 54.215,245.539 54.346,245.539 54.667 M191.872 57.833 C 191.872 58.154,191.906 58.285,191.948 58.125 C 191.990 57.965,191.990 57.702,191.948 57.542 C 191.906 57.381,191.872 57.512,191.872 57.833 M278.872 57.833 C 278.872 58.154,278.906 58.285,278.948 58.125 C 278.990 57.965,278.990 57.702,278.948 57.542 C 278.906 57.381,278.872 57.512,278.872 57.833 M246.039 58.667 C 246.039 58.987,246.073 59.119,246.115 58.958 C 246.157 58.798,246.157 58.535,246.115 58.375 C 246.073 58.215,246.039 58.346,246.039 58.667 M262.705 59.500 C 262.705 59.821,262.740 59.952,262.782 59.792 C 262.823 59.631,262.823 59.369,262.782 59.208 C 262.740 59.048,262.705 59.179,262.705 59.500 M208.039 59.667 C 208.039 59.987,208.073 60.119,208.115 59.958 C 208.157 59.798,208.157 59.535,208.115 59.375 C 208.073 59.215,208.039 59.346,208.039 59.667 M224.542 59.917 C 224.544 60.283,224.578 60.414,224.618 60.206 C 224.658 59.999,224.656 59.699,224.615 59.540 C 224.573 59.380,224.540 59.550,224.542 59.917 M246.205 60.000 C 246.205 60.321,246.240 60.452,246.282 60.292 C 246.323 60.131,246.323 59.869,246.282 59.708 C 246.240 59.548,246.205 59.679,246.205 60.000 M262.539 60.833 C 262.539 61.154,262.573 61.285,262.615 61.125 C 262.657 60.965,262.657 60.702,262.615 60.542 C 262.573 60.381,262.539 60.512,262.539 60.833 M224.039 63.833 C 224.039 64.154,224.073 64.285,224.115 64.125 C 224.157 63.965,224.157 63.702,224.115 63.542 C 224.073 63.381,224.039 63.512,224.039 63.833 M246.709 63.917 C 246.711 64.283,246.745 64.414,246.785 64.206 C 246.824 63.999,246.823 63.699,246.781 63.540 C 246.739 63.380,246.707 63.550,246.709 63.917 M208.705 64.667 C 208.705 64.987,208.740 65.119,208.782 64.958 C 208.823 64.798,208.823 64.535,208.782 64.375 C 208.740 64.215,208.705 64.346,208.705 64.667 M262.039 64.667 C 262.039 64.987,262.073 65.119,262.115 64.958 C 262.157 64.798,262.157 64.535,262.115 64.375 C 262.073 64.215,262.039 64.346,262.039 64.667 M223.872 65.167 C 223.872 65.487,223.906 65.619,223.948 65.458 C 223.990 65.298,223.990 65.035,223.948 64.875 C 223.906 64.715,223.872 64.846,223.872 65.167 M193.039 65.833 C 193.039 66.154,193.073 66.285,193.115 66.125 C 193.157 65.965,193.157 65.702,193.115 65.542 C 193.073 65.381,193.039 65.512,193.039 65.833 M261.872 66.000 C 261.872 66.321,261.906 66.452,261.948 66.292 C 261.990 66.131,261.990 65.869,261.948 65.708 C 261.906 65.548,261.872 65.679,261.872 66.000 M193.205 67.000 C 193.205 67.321,193.240 67.452,193.282 67.292 C 193.323 67.131,193.323 66.869,193.282 66.708 C 193.240 66.548,193.205 66.679,193.205 67.000 M223.372 69.167 C 223.372 69.487,223.406 69.619,223.448 69.458 C 223.490 69.298,223.490 69.035,223.448 68.875 C 223.406 68.715,223.372 68.846,223.372 69.167 M247.372 69.167 C 247.372 69.487,247.406 69.619,247.448 69.458 C 247.490 69.298,247.490 69.035,247.448 68.875 C 247.406 68.715,247.372 68.846,247.372 69.167 M209.375 70.083 C 209.377 70.450,209.411 70.580,209.451 70.373 C 209.491 70.166,209.490 69.866,209.448 69.706 C 209.406 69.547,209.374 69.717,209.375 70.083 M261.372 70.000 C 261.372 70.321,261.406 70.452,261.448 70.292 C 261.490 70.131,261.490 69.869,261.448 69.708 C 261.406 69.548,261.372 69.679,261.372 70.000 M223.205 70.500 C 223.205 70.821,223.240 70.952,223.282 70.792 C 223.323 70.631,223.323 70.369,223.282 70.208 C 223.240 70.048,223.205 70.179,223.205 70.500 M247.539 70.500 C 247.539 70.821,247.573 70.952,247.615 70.792 C 247.657 70.631,247.657 70.369,247.615 70.208 C 247.573 70.048,247.539 70.179,247.539 70.500 M261.205 71.333 C 261.205 71.654,261.240 71.785,261.282 71.625 C 261.323 71.465,261.323 71.202,261.282 71.042 C 261.240 70.881,261.205 71.012,261.205 71.333 M276.872 71.667 C 276.872 71.987,276.906 72.119,276.948 71.958 C 276.990 71.798,276.990 71.535,276.948 71.375 C 276.906 71.215,276.872 71.346,276.872 71.667 M222.705 74.333 C 222.705 74.654,222.740 74.785,222.782 74.625 C 222.823 74.465,222.823 74.202,222.782 74.042 C 222.740 73.881,222.705 74.012,222.705 74.333 M248.042 74.417 C 248.044 74.783,248.078 74.914,248.118 74.706 C 248.158 74.499,248.156 74.199,248.115 74.040 C 248.073 73.880,248.040 74.050,248.042 74.417 M276.372 75.167 C 276.372 75.487,276.406 75.619,276.448 75.458 C 276.490 75.298,276.490 75.035,276.448 74.875 C 276.406 74.715,276.372 74.846,276.372 75.167 M210.042 75.583 C 210.044 75.950,210.078 76.080,210.118 75.873 C 210.158 75.666,210.156 75.366,210.115 75.206 C 210.073 75.047,210.040 75.217,210.042 75.583 M260.709 75.583 C 260.711 75.950,260.745 76.080,260.785 75.873 C 260.824 75.666,260.823 75.366,260.781 75.206 C 260.739 75.047,260.707 75.217,260.709 75.583 M222.539 75.667 C 222.539 75.987,222.573 76.119,222.615 75.958 C 222.657 75.798,222.657 75.535,222.615 75.375 C 222.573 75.215,222.539 75.346,222.539 75.667 M276.205 76.333 C 276.205 76.654,276.240 76.785,276.282 76.625 C 276.323 76.465,276.323 76.202,276.282 76.042 C 276.240 75.881,276.205 76.012,276.205 76.333 M260.539 77.000 C 260.539 77.321,260.573 77.452,260.615 77.292 C 260.657 77.131,260.657 76.869,260.615 76.708 C 260.573 76.548,260.539 76.679,260.539 77.000 M222.039 79.667 C 222.039 79.987,222.073 80.119,222.115 79.958 C 222.157 79.798,222.157 79.535,222.115 79.375 C 222.073 79.215,222.039 79.346,222.039 79.667 M248.705 79.667 C 248.705 79.987,248.740 80.119,248.782 79.958 C 248.823 79.798,248.823 79.535,248.782 79.375 C 248.740 79.215,248.705 79.346,248.705 79.667 M248.872 81.000 C 248.872 81.321,248.906 81.452,248.948 81.292 C 248.990 81.131,248.990 80.869,248.948 80.708 C 248.906 80.548,248.872 80.679,248.872 81.000 M210.709 81.417 C 210.711 81.783,210.745 81.914,210.785 81.706 C 210.824 81.499,210.823 81.199,210.781 81.040 C 210.739 80.880,210.707 81.050,210.709 81.417 M260.042 81.417 C 260.044 81.783,260.078 81.914,260.118 81.706 C 260.158 81.499,260.156 81.199,260.115 81.040 C 260.073 80.880,260.040 81.050,260.042 81.417 M235.039 81.833 C 235.039 82.154,235.073 82.285,235.115 82.125 C 235.157 81.965,235.157 81.702,235.115 81.542 C 235.073 81.381,235.039 81.512,235.039 81.833 M259.872 82.833 C 259.872 83.154,259.906 83.285,259.948 83.125 C 259.990 82.965,259.990 82.702,259.948 82.542 C 259.906 82.381,259.872 82.512,259.872 82.833 M221.372 84.833 C 221.372 85.154,221.406 85.285,221.448 85.125 C 221.490 84.965,221.490 84.702,221.448 84.542 C 221.406 84.381,221.372 84.512,221.372 84.833 M249.375 84.917 C 249.377 85.283,249.411 85.414,249.451 85.206 C 249.491 84.999,249.490 84.699,249.448 84.540 C 249.406 84.380,249.374 84.550,249.375 84.917 M234.372 86.667 C 234.372 86.987,234.406 87.119,234.448 86.958 C 234.490 86.798,234.490 86.535,234.448 86.375 C 234.406 86.215,234.372 86.346,234.372 86.667 M236.372 86.667 C 236.372 86.987,236.406 87.119,236.448 86.958 C 236.490 86.798,236.490 86.535,236.448 86.375 C 236.406 86.215,236.372 86.346,236.372 86.667 M259.379 87.333 C 259.379 87.746,259.411 87.915,259.451 87.708 C 259.491 87.502,259.491 87.165,259.451 86.958 C 259.411 86.752,259.379 86.921,259.379 87.333 M211.375 87.417 C 211.377 87.783,211.411 87.914,211.451 87.706 C 211.491 87.499,211.490 87.199,211.448 87.040 C 211.406 86.880,211.374 87.050,211.375 87.417 M196.372 88.833 C 196.372 89.154,196.406 89.285,196.448 89.125 C 196.490 88.965,196.490 88.702,196.448 88.542 C 196.406 88.381,196.372 88.513,196.372 88.833 M211.539 89.000 C 211.539 89.321,211.573 89.452,211.615 89.292 C 211.657 89.131,211.657 88.869,211.615 88.708 C 211.573 88.548,211.539 88.679,211.539 89.000 M220.705 90.167 C 220.705 90.487,220.740 90.619,220.782 90.458 C 220.823 90.298,220.823 90.035,220.782 89.875 C 220.740 89.715,220.705 89.846,220.705 90.167 M250.039 90.167 C 250.039 90.487,250.073 90.619,250.115 90.458 C 250.157 90.298,250.157 90.035,250.115 89.875 C 250.073 89.715,250.039 89.846,250.039 90.167 M233.705 91.500 C 233.705 91.821,233.740 91.952,233.782 91.792 C 233.823 91.631,233.823 91.369,233.782 91.208 C 233.740 91.048,233.705 91.179,233.705 91.500 M258.712 93.500 C 258.712 93.912,258.745 94.081,258.784 93.875 C 258.824 93.669,258.824 93.331,258.784 93.125 C 258.745 92.919,258.712 93.087,258.712 93.500 M212.045 93.667 C 212.045 94.079,212.078 94.248,212.118 94.042 C 212.157 93.835,212.157 93.498,212.118 93.292 C 212.078 93.085,212.045 93.254,212.045 93.667 M273.705 93.667 C 273.705 93.987,273.740 94.119,273.782 93.958 C 273.823 93.798,273.823 93.535,273.782 93.375 C 273.740 93.215,273.705 93.346,273.705 93.667 M258.539 95.167 C 258.539 95.487,258.573 95.619,258.615 95.458 C 258.657 95.298,258.657 95.035,258.615 94.875 C 258.573 94.715,258.539 94.846,258.539 95.167 M220.042 95.417 C 220.044 95.783,220.078 95.914,220.118 95.706 C 220.158 95.499,220.156 95.199,220.115 95.040 C 220.073 94.880,220.040 95.050,220.042 95.417 M250.705 95.500 C 250.705 95.821,250.740 95.952,250.782 95.792 C 250.823 95.631,250.823 95.369,250.782 95.208 C 250.740 95.048,250.705 95.179,250.705 95.500 M237.705 96.167 C 237.705 96.487,237.740 96.619,237.782 96.458 C 237.823 96.298,237.823 96.035,237.782 95.875 C 237.740 95.715,237.705 95.846,237.705 96.167 M233.039 96.333 C 233.039 96.654,233.073 96.785,233.115 96.625 C 233.157 96.465,233.157 96.202,233.115 96.042 C 233.073 95.881,233.039 96.013,233.039 96.333 M197.705 98.000 C 197.705 98.321,197.740 98.452,197.782 98.292 C 197.823 98.131,197.823 97.869,197.782 97.708 C 197.740 97.548,197.705 97.679,197.705 98.000 M258.205 98.167 C 258.205 98.487,258.240 98.619,258.282 98.458 C 258.323 98.298,258.323 98.035,258.282 97.875 C 258.240 97.715,258.205 97.846,258.205 98.167 M212.539 98.333 C 212.539 98.654,212.573 98.785,212.615 98.625 C 212.657 98.465,212.657 98.202,212.615 98.042 C 212.573 97.881,212.539 98.013,212.539 98.333 M273.039 98.333 C 273.039 98.654,273.073 98.785,273.115 98.625 C 273.157 98.465,273.157 98.202,273.115 98.042 C 273.073 97.881,273.039 98.013,273.039 98.333 M212.712 100.000 C 212.712 100.412,212.745 100.581,212.784 100.375 C 212.824 100.169,212.824 99.831,212.784 99.625 C 212.745 99.419,212.712 99.587,212.712 100.000 M258.042 99.917 C 258.044 100.283,258.078 100.414,258.118 100.206 C 258.158 99.999,258.156 99.699,258.115 99.540 C 258.073 99.380,258.040 99.550,258.042 99.917 M219.372 100.667 C 219.372 100.987,219.406 101.119,219.448 100.958 C 219.490 100.798,219.490 100.535,219.448 100.375 C 219.406 100.215,219.372 100.346,219.372 100.667 M251.372 100.667 C 251.372 100.987,251.406 101.119,251.448 100.958 C 251.490 100.798,251.490 100.535,251.448 100.375 C 251.406 100.215,251.372 100.346,251.372 100.667 M238.372 101.000 C 238.372 101.321,238.406 101.452,238.448 101.292 C 238.490 101.131,238.490 100.869,238.448 100.708 C 238.406 100.548,238.372 100.679,238.372 101.000 M232.372 101.167 C 232.372 101.487,232.406 101.619,232.448 101.458 C 232.490 101.298,232.490 101.035,232.448 100.875 C 232.406 100.715,232.372 100.846,232.372 101.167 M212.872 101.667 C 212.872 101.987,212.906 102.119,212.948 101.958 C 212.990 101.798,212.990 101.535,212.948 101.375 C 212.906 101.215,212.872 101.346,212.872 101.667 M257.539 104.667 C 257.539 104.987,257.573 105.119,257.615 104.958 C 257.657 104.798,257.657 104.535,257.615 104.375 C 257.573 104.215,257.539 104.346,257.539 104.667 M213.205 104.833 C 213.205 105.154,213.240 105.285,213.282 105.125 C 213.323 104.965,213.323 104.702,213.282 104.542 C 213.240 104.381,213.205 104.513,213.205 104.833 M239.039 105.667 C 239.039 105.987,239.073 106.119,239.115 105.958 C 239.157 105.798,239.157 105.535,239.115 105.375 C 239.073 105.215,239.039 105.346,239.039 105.667 M218.709 105.917 C 218.711 106.283,218.745 106.414,218.785 106.206 C 218.824 105.999,218.823 105.699,218.781 105.540 C 218.739 105.380,218.707 105.550,218.709 105.917 M231.705 106.000 C 231.705 106.321,231.740 106.452,231.782 106.292 C 231.823 106.131,231.823 105.869,231.782 105.708 C 231.740 105.548,231.705 105.679,231.705 106.000 M252.039 106.000 C 252.039 106.321,252.073 106.452,252.115 106.292 C 252.157 106.131,252.157 105.869,252.115 105.708 C 252.073 105.548,252.039 105.679,252.039 106.000 M213.379 106.500 C 213.379 106.912,213.411 107.081,213.451 106.875 C 213.491 106.669,213.491 106.331,213.451 106.125 C 213.411 105.919,213.379 106.087,213.379 106.500 M257.379 106.500 C 257.379 106.912,257.411 107.081,257.451 106.875 C 257.491 106.669,257.491 106.331,257.451 106.125 C 257.411 105.919,257.379 106.087,257.379 106.500 M199.039 107.167 C 199.039 107.487,199.073 107.619,199.115 107.458 C 199.157 107.298,199.157 107.035,199.115 106.875 C 199.073 106.715,199.039 106.846,199.039 107.167 M257.205 108.167 C 257.205 108.487,257.240 108.619,257.282 108.458 C 257.323 108.298,257.323 108.035,257.282 107.875 C 257.240 107.715,257.205 107.846,257.205 108.167 M239.705 110.500 C 239.705 110.821,239.740 110.952,239.782 110.792 C 239.823 110.631,239.823 110.369,239.782 110.208 C 239.740 110.048,239.705 110.179,239.705 110.500 M231.039 110.833 C 231.039 111.154,231.073 111.285,231.115 111.125 C 231.157 110.965,231.157 110.702,231.115 110.542 C 231.073 110.381,231.039 110.513,231.039 110.833 M218.039 111.167 C 218.039 111.487,218.073 111.619,218.115 111.458 C 218.157 111.298,218.157 111.035,218.115 110.875 C 218.073 110.715,218.039 110.846,218.039 111.167 M252.709 111.250 C 252.711 111.617,252.745 111.747,252.785 111.540 C 252.824 111.332,252.823 111.032,252.781 110.873 C 252.739 110.714,252.707 110.883,252.709 111.250 M213.875 111.417 C 213.877 111.783,213.911 111.914,213.951 111.706 C 213.991 111.499,213.990 111.199,213.948 111.040 C 213.906 110.880,213.874 111.050,213.875 111.417 M256.875 111.417 C 256.877 111.783,256.911 111.914,256.951 111.706 C 256.991 111.499,256.990 111.199,256.948 111.040 C 256.906 110.880,256.874 111.050,256.875 111.417 M271.039 112.167 C 271.039 112.487,271.073 112.619,271.115 112.458 C 271.157 112.298,271.157 112.035,271.115 111.875 C 271.073 111.715,271.039 111.846,271.039 112.167 M214.045 113.167 C 214.045 113.579,214.078 113.748,214.118 113.542 C 214.157 113.335,214.157 112.998,214.118 112.792 C 214.078 112.585,214.045 112.754,214.045 113.167 M256.712 113.167 C 256.712 113.579,256.745 113.748,256.784 113.542 C 256.824 113.335,256.824 112.998,256.784 112.792 C 256.745 112.585,256.712 112.754,256.712 113.167 M214.205 115.000 C 214.205 115.321,214.240 115.452,214.282 115.292 C 214.323 115.131,214.323 114.869,214.282 114.708 C 214.240 114.548,214.205 114.679,214.205 115.000 M240.372 115.167 C 240.372 115.487,240.406 115.619,240.448 115.458 C 240.490 115.298,240.490 115.035,240.448 114.875 C 240.406 114.715,240.372 114.846,240.372 115.167 M230.372 115.667 C 230.372 115.987,230.406 116.119,230.448 115.958 C 230.490 115.798,230.490 115.535,230.448 115.375 C 230.406 115.215,230.372 115.346,230.372 115.667 M200.372 116.333 C 200.372 116.654,200.406 116.785,200.448 116.625 C 200.490 116.465,200.490 116.202,200.448 116.042 C 200.406 115.881,200.372 116.013,200.372 116.333 M217.375 116.417 C 217.377 116.783,217.411 116.914,217.451 116.706 C 217.491 116.499,217.490 116.199,217.448 116.040 C 217.406 115.880,217.374 116.050,217.375 116.417 M253.372 116.500 C 253.372 116.821,253.406 116.952,253.448 116.792 C 253.490 116.631,253.490 116.369,253.448 116.208 C 253.406 116.048,253.372 116.179,253.372 116.500 M270.372 116.833 C 270.372 117.154,270.406 117.285,270.448 117.125 C 270.490 116.965,270.490 116.702,270.448 116.542 C 270.406 116.381,270.372 116.513,270.372 116.833 M214.545 118.333 C 214.545 118.746,214.578 118.915,214.618 118.708 C 214.657 118.502,214.657 118.165,214.618 117.958 C 214.578 117.752,214.545 117.921,214.545 118.333 M256.209 118.250 C 256.211 118.617,256.245 118.747,256.285 118.540 C 256.324 118.332,256.323 118.032,256.281 117.873 C 256.239 117.714,256.207 117.883,256.209 118.250 M256.045 120.000 C 256.045 120.412,256.078 120.581,256.118 120.375 C 256.157 120.169,256.157 119.831,256.118 119.625 C 256.078 119.419,256.045 119.587,256.045 120.000 M214.712 120.167 C 214.712 120.579,214.745 120.748,214.784 120.542 C 214.824 120.335,214.824 119.998,214.784 119.792 C 214.745 119.585,214.712 119.754,214.712 120.167 M241.039 120.000 C 241.039 120.321,241.073 120.452,241.115 120.292 C 241.157 120.131,241.157 119.869,241.115 119.708 C 241.073 119.548,241.039 119.679,241.039 120.000 M229.705 120.500 C 229.705 120.821,229.740 120.952,229.782 120.792 C 229.823 120.631,229.823 120.369,229.782 120.208 C 229.740 120.048,229.705 120.179,229.705 120.500 M201.039 121.000 C 201.039 121.321,201.073 121.452,201.115 121.292 C 201.157 121.131,201.157 120.869,201.115 120.708 C 201.073 120.548,201.039 120.679,201.039 121.000 M269.705 121.500 C 269.705 121.821,269.740 121.952,269.782 121.792 C 269.823 121.631,269.823 121.369,269.782 121.208 C 269.740 121.048,269.705 121.179,269.705 121.500 M216.705 121.667 C 216.705 121.987,216.740 122.119,216.782 121.958 C 216.823 121.798,216.823 121.535,216.782 121.375 C 216.740 121.215,216.705 121.346,216.705 121.667 M254.042 121.750 C 254.044 122.117,254.078 122.247,254.118 122.040 C 254.158 121.832,254.156 121.532,254.115 121.373 C 254.073 121.214,254.040 121.383,254.042 121.750 M214.872 121.833 C 214.872 122.154,214.906 122.285,214.948 122.125 C 214.990 121.965,214.990 121.702,214.948 121.542 C 214.906 121.381,214.872 121.513,214.872 121.833 M215.212 125.333 C 215.212 125.746,215.245 125.915,215.284 125.708 C 215.324 125.502,215.324 125.165,215.284 124.958 C 215.245 124.752,215.212 124.921,215.212 125.333 M255.542 125.250 C 255.544 125.617,255.578 125.747,255.618 125.540 C 255.658 125.332,255.656 125.032,255.615 124.873 C 255.573 124.714,255.540 124.883,255.542 125.250 M254.539 125.667 C 254.539 125.987,254.573 126.119,254.615 125.958 C 254.657 125.798,254.657 125.535,254.615 125.375 C 254.573 125.215,254.539 125.346,254.539 125.667 M183.372 126.500 C 183.372 126.821,183.406 126.952,183.448 126.792 C 183.490 126.631,183.490 126.369,183.448 126.208 C 183.406 126.048,183.372 126.179,183.372 126.500 M216.042 126.917 C 216.044 127.283,216.078 127.414,216.118 127.206 C 216.158 126.999,216.156 126.699,216.115 126.540 C 216.073 126.380,216.040 126.550,216.042 126.917 M255.379 127.000 C 255.379 127.412,255.411 127.581,255.451 127.375 C 255.491 127.169,255.491 126.831,255.451 126.625 C 255.411 126.419,255.379 126.587,255.379 127.000 M215.379 127.167 C 215.379 127.579,215.411 127.748,215.451 127.542 C 215.491 127.335,215.491 126.998,215.451 126.792 C 215.411 126.585,215.379 126.754,215.379 127.167 M254.705 127.000 C 254.705 127.321,254.740 127.452,254.782 127.292 C 254.823 127.131,254.823 126.869,254.782 126.708 C 254.740 126.548,254.705 126.679,254.705 127.000 M166.789 127.209 L 166.495 127.750 166.831 127.357 C 167.117 127.022,167.269 126.664,167.125 126.668 C 167.102 126.668,166.951 126.912,166.789 127.209 M183.205 128.000 C 183.205 128.321,183.240 128.452,183.282 128.292 C 183.323 128.131,183.323 127.869,183.282 127.708 C 183.240 127.548,183.205 127.679,183.205 128.000 M255.189 128.583 C 255.174 128.767,255.120 129.104,255.070 129.333 C 254.990 129.693,255.003 129.710,255.166 129.454 C 255.270 129.291,255.324 128.954,255.286 128.704 C 255.241 128.408,255.207 128.366,255.189 128.583 M215.519 128.833 C 215.511 129.063,215.578 129.362,215.667 129.500 C 215.872 129.818,215.872 129.476,215.667 128.833 L 215.533 128.417 215.519 128.833 M242.372 129.500 C 242.372 129.821,242.406 129.952,242.448 129.792 C 242.490 129.631,242.490 129.369,242.448 129.208 C 242.406 129.048,242.372 129.179,242.372 129.500 M202.372 130.167 C 202.372 130.487,202.406 130.619,202.448 130.458 C 202.490 130.298,202.490 130.035,202.448 129.875 C 202.406 129.715,202.372 129.846,202.372 130.167 M151.667 138.583 L 151.667 147.333 156.958 147.294 L 162.250 147.255 157.042 147.208 L 151.833 147.162 151.833 138.583 L 151.833 130.005 156.792 129.958 L 161.750 129.912 156.708 129.872 L 151.667 129.833 151.667 138.583 M243.039 134.333 C 243.039 134.654,243.073 134.785,243.115 134.625 C 243.157 134.465,243.157 134.202,243.115 134.042 C 243.073 133.881,243.039 134.012,243.039 134.333 M227.705 134.833 C 227.705 135.154,227.740 135.285,227.782 135.125 C 227.823 134.965,227.823 134.702,227.782 134.542 C 227.740 134.381,227.705 134.512,227.705 134.833 M267.705 135.333 C 267.705 135.654,267.740 135.785,267.782 135.625 C 267.823 135.465,267.823 135.202,267.782 135.042 C 267.740 134.881,267.705 135.012,267.705 135.333 M243.539 137.833 C 243.539 138.154,243.573 138.285,243.615 138.125 C 243.657 137.965,243.657 137.702,243.615 137.542 C 243.573 137.381,243.539 137.512,243.539 137.833 M227.205 138.500 C 227.205 138.821,227.240 138.952,227.282 138.792 C 227.323 138.631,227.323 138.369,227.282 138.208 C 227.240 138.048,227.205 138.179,227.205 138.500 M267.205 138.833 C 267.205 139.154,267.240 139.285,267.282 139.125 C 267.323 138.965,267.323 138.702,267.282 138.542 C 267.240 138.381,267.205 138.512,267.205 138.833 M203.705 139.333 C 203.705 139.654,203.740 139.785,203.782 139.625 C 203.823 139.465,203.823 139.202,203.782 139.042 C 203.740 138.881,203.705 139.012,203.705 139.333 M178.073 139.542 L 177.583 140.083 178.125 139.594 C 178.630 139.138,178.743 139.000,178.615 139.000 C 178.586 139.000,178.342 139.244,178.073 139.542 M227.039 139.667 C 227.039 139.987,227.073 140.119,227.115 139.958 C 227.157 139.798,227.157 139.535,227.115 139.375 C 227.073 139.215,227.039 139.346,227.039 139.667 M267.039 140.000 C 267.039 140.321,267.073 140.452,267.115 140.292 C 267.157 140.131,267.157 139.869,267.115 139.708 C 267.073 139.548,267.039 139.679,267.039 140.000 M226.539 143.333 C 226.539 143.654,226.573 143.785,226.615 143.625 C 226.657 143.465,226.657 143.202,226.615 143.042 C 226.573 142.881,226.539 143.012,226.539 143.333 M244.372 143.833 C 244.372 144.154,244.406 144.285,244.448 144.125 C 244.490 143.965,244.490 143.702,244.448 143.542 C 244.406 143.381,244.372 143.512,244.372 143.833 M226.372 144.500 C 226.372 144.821,226.406 144.952,226.448 144.792 C 226.490 144.631,226.490 144.369,226.448 144.208 C 226.406 144.048,226.372 144.179,226.372 144.500 M226.000 146.891 C 226.000 147.151,225.238 147.168,215.417 147.127 C 209.596 147.103,204.833 147.140,204.833 147.208 C 204.833 147.486,226.003 147.354,226.109 147.076 C 226.163 146.935,226.161 146.772,226.104 146.715 C 226.047 146.658,226.000 146.737,226.000 146.891 M266.000 146.891 C 266.000 147.151,265.238 147.168,255.417 147.127 C 249.596 147.103,244.833 147.140,244.833 147.208 C 244.833 147.486,266.003 147.354,266.109 147.076 C 266.163 146.935,266.161 146.772,266.104 146.715 C 266.047 146.658,266.000 146.737,266.000 146.891 M163.208 147.115 C 163.369 147.157,163.631 147.157,163.792 147.115 C 163.952 147.073,163.821 147.039,163.500 147.039 C 163.179 147.039,163.048 147.073,163.208 147.115 " stroke="none" fill="#fc934b" fill-rule="evenodd"></path></g></svg>